<svg width="90" height="90" viewBox="0 0 90 90" fill="none" xmlns="http://www.w3.org/2000/svg">
<g clip-path="url(#clip0_48717_67234)">
<rect x="3.43604" y="3.43628" width="82.4704" height="82.4704" rx="41.2352" fill="white"/>
<g clip-path="url(#clip1_48717_67234)">
<rect x="3.43604" y="3.43628" width="82.4704" height="82.4704" rx="41.2352" fill="url(#paint0_linear_48717_67234)"/>
<g clip-path="url(#clip2_48717_67234)">
<rect x="3.30566" y="3.43628" width="82.4704" height="82.4704" rx="22.799" fill="#6D2DD3"/>
<g clip-path="url(#clip3_48717_67234)">
<path d="M-12.2833 -7.59955C-10.5141 -5.8801 -8.77479 -4.12089 -7.00565 -2.40144C-6.14095 -1.56656 -5.2365 -0.761494 -4.33205 0.0236889C-4.10346 0.222469 -4.12333 0.361613 -4.2426 0.580272C-4.57059 1.16667 -4.86876 1.76302 -5.20669 2.34942C-5.85272 3.47253 -6.34967 4.67515 -7.26406 5.63924C-7.48272 5.86783 -7.33364 6.02685 -7.07522 6.1163C-5.19675 6.80209 -3.63632 8.06435 -1.91687 9.03838C-1.82742 9.08807 -1.76779 9.2968 -1.7976 9.40613C-2.35419 11.2548 -2.94059 13.0935 -3.48724 14.9422C-4.00406 16.7014 -4.46126 18.4804 -4.94827 20.2496C-5.01784 20.508 -4.96815 20.6571 -4.67992 20.7267C-3.92455 20.9155 -3.17913 21.1242 -2.42376 21.323C-1.07206 21.6808 0.279651 22.0585 1.65123 22.3865C3.18184 22.7542 4.71245 23.0723 6.253 23.4003C6.52135 23.4599 6.60086 23.599 6.60086 23.8575C6.59093 24.5432 6.6108 25.239 6.60086 25.9248C6.58099 27.1671 6.57105 28.3996 6.50147 29.642C6.4816 30.0395 6.58099 30.1091 6.93879 30.0594C7.55501 29.9799 8.18117 29.9004 8.79739 29.9004C9.95031 29.8904 11.1032 29.9501 12.2562 29.97C13.0314 29.9799 13.0215 29.9799 13.2004 30.7353C13.6476 32.6237 14.1048 34.5121 14.572 36.3906C14.9695 37.9907 15.4068 39.581 15.8143 41.1712C15.8839 41.4296 15.9833 41.6085 16.2914 41.5191C16.689 41.3998 17.0965 41.2706 17.504 41.1613C19.0743 40.724 20.6546 40.2966 22.225 39.8493C23.8351 39.3822 25.4452 38.8952 27.0554 38.3883C27.3237 38.2989 27.4529 38.3187 27.5821 38.5573C28.5263 40.2767 29.7886 41.8173 30.4446 43.6957C30.544 43.9641 30.7229 44.0138 30.9515 43.815C31.0508 43.7355 31.1304 43.646 31.2397 43.5765C32.8399 42.6422 34.44 41.7079 36.0502 40.7935C36.1496 40.7438 36.398 40.8234 36.4875 40.9228C37.223 41.7079 37.9187 42.5428 38.6641 43.3081C40.4631 45.1568 42.2819 46.9856 44.0908 48.8143C44.5381 49.2715 44.5381 49.2715 45.0052 48.7945C46.6452 47.1247 48.305 45.4649 49.935 43.7852C50.8195 42.8807 51.6743 41.9465 52.4992 40.9824C52.7378 40.7041 52.9067 40.6544 53.185 40.8432C53.2844 40.9128 53.4037 40.9526 53.513 41.0221C55.0536 41.9564 56.783 42.6024 58.1545 43.8249C58.3831 44.0237 58.5521 43.9243 58.6515 43.656C59.3273 41.7676 60.5896 40.2071 61.5636 38.4877C61.6133 38.3982 61.822 38.3187 61.9214 38.3485C63.8496 38.9151 65.7579 39.5313 67.686 40.0879C69.2564 40.5451 70.8367 40.9426 72.417 41.37C73.1426 41.5688 73.1326 41.5688 73.3115 40.8731C73.8085 38.9648 74.3452 37.0565 74.8223 35.1482C75.2198 33.5381 75.5478 31.9081 75.9354 30.288C75.9652 30.1588 76.164 29.9898 76.2833 29.9799C77.1381 29.9401 77.9928 29.9004 78.8575 29.9203C79.9806 29.9401 81.0938 30.0196 82.207 30.0693C82.5051 30.0892 82.6641 30.0097 82.5747 29.6618C82.5151 29.4531 82.4654 29.2345 82.4654 29.0158C82.4554 27.2665 82.4654 25.5173 82.4554 23.768C82.4554 23.4897 82.6144 23.4301 82.8232 23.3903C84.0556 23.1319 85.298 22.9132 86.5205 22.6051C88.9058 22.0088 91.2813 21.3429 93.6567 20.7366C94.0244 20.6471 94.0642 20.4782 93.9748 20.1701C93.6169 18.9178 93.2691 17.6555 92.9113 16.4032C92.2354 14.0874 91.5496 11.7716 90.8937 9.45582C90.8539 9.32661 90.9235 9.07813 91.0229 9.0185C92.7224 8.04447 94.2729 6.80209 96.1415 6.1163C96.5092 5.97715 96.4993 5.81813 96.2607 5.53984C95.9526 5.19197 95.6544 4.82423 95.4258 4.41673C94.7699 3.2638 94.1338 2.10094 93.5076 0.928133C93.1597 0.272157 93.1697 0.262221 93.766 -0.224791C93.8257 -0.274486 93.8754 -0.334118 93.935 -0.383813C95.2966 -1.69576 96.6583 -3.00772 98.01 -4.32961C99.143 -5.43285 100.256 -6.54601 101.399 -7.6393C101.538 -7.77845 101.618 -7.88778 101.618 -8.00705L100.952 -8.00705C100.952 -7.82815 100.773 -7.65918 100.415 -7.29144C98.9641 -5.84034 97.5329 -4.37931 96.0619 -2.94809C95.068 -1.984 94.0145 -1.07954 92.9212 -0.0856426C92.5634 -0.741618 92.2354 -1.32802 91.9373 -1.92436C91.8876 -2.02375 91.9174 -2.24242 91.9969 -2.31199C93.2492 -3.48479 94.5015 -4.64766 95.7638 -5.82047C96.4198 -6.42675 97.0658 -7.04296 97.7317 -7.6393C97.8808 -7.76851 97.9603 -7.88778 97.9504 -8.00705L97.4335 -8.00705C95.5054 -6.19815 93.5871 -4.40912 91.6192 -2.5704C91.1819 -3.26613 90.7545 -3.96186 90.3271 -4.65759C91.2614 -5.4229 92.1857 -6.1882 93.1001 -6.94357C93.3883 -7.18211 93.6766 -7.42064 93.9449 -7.67906C94.0543 -7.78839 94.1139 -7.89773 94.104 -7.99712L93.6368 -7.99712C93.2989 -7.68901 93.0007 -7.38089 92.6727 -7.11254C91.9571 -6.5162 91.2216 -5.92979 90.4961 -5.34339C90.2178 -5.11479 90.0091 -4.96571 89.7208 -5.39308C89.4426 -5.82046 89.0351 -6.16834 88.6772 -6.55596C89.1444 -6.9237 89.5916 -7.29144 90.0488 -7.64925C90.2079 -7.76852 90.2774 -7.88779 90.2774 -7.99712L89.8898 -7.99712C89.3432 -7.59955 88.876 -7.27156 88.4089 -6.94357C88.3493 -6.90381 88.2201 -6.88394 88.1604 -6.9237C87.3653 -7.29144 86.5702 -7.66913 85.8744 -7.99711C85.8744 -7.99711 85.8744 -7.99711 85.8844 -7.99711L81.7796 -7.99711C81.7696 -7.52004 81.6802 -7.05291 81.5311 -6.56589C81.1037 -5.18437 80.4577 -3.94198 79.4936 -2.86857C78.7581 -2.05357 77.8139 -1.53674 76.8299 -1.07954C75.7863 -0.592532 74.6831 -0.622349 73.5501 -0.681983C73.5501 -1.21869 73.5501 -1.74547 73.5501 -2.30205C74.0768 -2.43126 74.6235 -2.52071 75.1503 -2.68968C77.6052 -3.50468 79.1954 -5.14461 79.7818 -7.66912C79.8017 -7.77845 79.8216 -7.87784 79.8315 -7.98717L79.3545 -7.98717C79.3644 -7.25168 79.0662 -6.59571 78.6786 -5.96955C77.6748 -4.35943 76.2634 -3.25619 74.3452 -2.90833C74.0768 -2.85863 73.7985 -2.82882 73.4706 -2.77913C73.3314 -3.40529 73.2022 -3.97181 73.0631 -4.58803C73.3314 -4.6576 73.5898 -4.73711 73.8582 -4.80668C75.0509 -5.12473 76.0448 -5.73101 76.651 -6.83424C76.8697 -7.2318 76.989 -7.61942 77.0088 -7.98717L76.5914 -7.98717C76.6013 -7.38089 76.2535 -6.83424 75.6373 -6.22796C74.9415 -5.54217 74.0271 -5.244 73.0829 -5.05515C72.9835 -5.03528 72.8245 -5.12474 72.7649 -5.21419C72.5065 -5.58193 72.2679 -5.95961 72.0592 -6.27766C72.6257 -6.53607 73.2121 -6.73486 73.729 -7.06284C74.1265 -7.31132 74.3253 -7.64924 74.3253 -7.97723L73.7091 -7.97723C73.6992 -7.82814 73.6196 -7.67906 73.4805 -7.53991C72.9239 -6.97339 72.2083 -6.79449 71.4728 -6.80443C71.1448 -6.80443 70.8268 -7.14236 70.4888 -7.31132C69.9919 -7.55979 69.485 -7.78839 69.1173 -7.96729C69.1272 -7.97723 69.1371 -7.97723 69.1471 -7.98717L66.0759 -7.98717C66.0759 -6.67521 65.41 -5.59187 64.436 -4.76693C63.3924 -3.88236 62.15 -3.62394 60.7884 -3.94199C60.5001 -4.01156 60.3908 -4.10101 60.4107 -4.39918C60.4306 -4.67747 60.4107 -4.95576 60.4107 -5.25393C60.9275 -5.25393 61.3748 -5.244 61.822 -5.25393C63.4123 -5.29369 64.4857 -6.25778 64.8335 -7.42065C64.8932 -7.60949 64.9131 -7.80827 64.923 -7.99711L64.4658 -7.99711C64.4658 -7.22187 63.9788 -6.47644 63.2135 -6.059C62.309 -5.57199 61.3251 -5.61174 60.3411 -5.75089C60.2715 -5.76082 60.192 -5.85028 60.1423 -5.91986C59.9038 -6.27766 59.6752 -6.64541 59.4168 -7.05291C59.9038 -6.97339 60.3709 -6.84418 60.8381 -6.83424C61.3251 -6.8243 61.832 -6.86406 62.2991 -6.98333C62.7165 -7.09266 63.0147 -7.57967 63.0048 -7.98717L62.5376 -7.98717C62.5376 -7.77845 62.2991 -7.49022 62.0904 -7.38089C61.8419 -7.25168 61.5139 -7.22186 61.2356 -7.2318C60.2616 -7.27156 59.3273 -7.49022 58.4527 -7.9176C58.4328 -7.92754 58.4229 -7.94742 58.4129 -7.99711L56.4053 -7.99711C56.4053 -7.95736 56.4053 -7.90766 56.4053 -7.85796C56.3754 -6.9237 55.4809 -6.059 54.5467 -6.01925C54.3777 -6.00931 54.2087 -5.95961 54.0398 -5.95961C53.6919 -5.94968 53.3838 -5.96955 53.2645 -6.41681C53.0757 -7.14236 52.6185 -7.66912 51.8532 -7.98716L51.8631 -7.98716L50.0841 -7.98716C50.0841 -7.98716 50.0841 -7.98717 50.0841 -7.97723C50.0841 -7.82814 49.8853 -7.62937 49.7262 -7.55979C48.5932 -7.0529 47.5695 -7.44052 46.4464 -7.98716L42.6497 -7.98716C42.6596 -7.98716 42.6695 -7.97723 42.6795 -7.97723C41.5663 -7.50015 40.5824 -7.0529 39.4791 -7.53991C39.2903 -7.61942 39.1511 -7.82814 38.9921 -7.97723C39.002 -7.98717 39.002 -7.98717 39.012 -7.99711L37.2329 -7.99711C37.2329 -7.99711 37.2428 -7.9971 37.2428 -7.98716C36.4676 -7.65918 36.0303 -7.09265 35.8017 -6.34723C35.752 -6.19814 35.5532 -6.01925 35.4041 -6.00931C34.6686 -5.93974 33.6549 -6.10869 33.138 -6.77461C32.8498 -7.14235 32.7206 -7.56973 32.7206 -7.99711L30.7129 -7.99711C30.7228 -7.93748 30.7229 -7.88778 30.7328 -7.82814C29.8482 -7.62936 28.9636 -7.39083 28.0691 -7.25169C27.7213 -7.19205 27.3038 -7.26162 26.9758 -7.40077C26.7771 -7.48028 26.5783 -7.77845 26.5584 -7.99711L26.0615 -7.99711C26.0615 -7.97723 26.0615 -7.9673 26.0615 -7.94742C26.0813 -7.52004 26.4292 -7.02309 26.9162 -6.95352C27.5125 -6.86406 28.1387 -6.89388 28.745 -6.90382C29.0432 -6.91376 29.3513 -7.00321 29.6594 -7.05291C29.4109 -6.66528 29.2221 -6.25777 28.9338 -5.94966C28.7649 -5.77076 28.4269 -5.72107 28.1586 -5.69125C26.9758 -5.57198 25.8925 -5.74095 25.0775 -6.72491C24.7396 -7.13241 24.6004 -7.55979 24.6104 -7.98716L24.1631 -7.98716C24.1432 -7.44052 24.3718 -6.95351 24.7097 -6.50626C25.3657 -5.64156 26.2702 -5.244 27.3535 -5.244C27.771 -5.244 28.1884 -5.244 28.6754 -5.244C28.6754 -4.91601 28.6953 -4.5582 28.6655 -4.2004C28.6555 -4.11095 28.5065 -3.99168 28.3971 -3.96186C26.3298 -3.40528 24.3022 -4.46875 23.5767 -6.14844C23.3481 -6.68515 23.0102 -7.24175 22.9903 -7.79833C22.9903 -7.85797 22.9903 -7.92753 22.9903 -7.98716L19.9092 -7.98716C19.9191 -7.98716 19.9291 -7.97723 19.9291 -7.97723C19.4421 -7.72875 18.7861 -7.45046 18.1798 -7.08271C17.7823 -6.83424 17.3946 -6.70503 16.9673 -6.88393C16.5001 -7.07278 16.033 -7.29144 15.6155 -7.56973C15.4466 -7.689 15.3671 -7.83808 15.387 -7.98716L14.7608 -7.98716C14.7608 -7.64924 14.9894 -7.31131 15.4466 -7.02308C15.9336 -6.71497 16.5001 -6.52613 17.0368 -6.28759C16.7884 -5.91985 16.5001 -5.48254 16.192 -5.01541C14.6813 -5.31358 13.3196 -5.83041 12.6338 -7.40077C12.5444 -7.59955 12.5046 -7.78838 12.5046 -7.97723L12.0673 -7.97723C12.0474 -7.30137 12.4251 -6.73485 12.8624 -6.21802C13.4985 -5.46266 14.3334 -4.97564 15.3174 -4.7868C15.5559 -4.73711 15.7945 -4.64766 16.033 -4.57809C15.8839 -3.96187 15.7547 -3.3854 15.6155 -2.78906C13.1904 -2.94809 11.4809 -4.19046 10.2783 -6.14844C9.90062 -6.76466 9.73165 -7.38088 9.74159 -7.97723L9.29434 -7.97723C9.2844 -7.2318 9.57263 -6.54601 9.9205 -5.92979C10.7454 -4.48863 11.9381 -3.3854 13.5184 -2.799C14.0352 -2.61016 14.6018 -2.5207 15.1484 -2.41137C15.4267 -2.36168 15.5957 -2.28217 15.5758 -1.94425C15.546 -1.52681 15.5659 -1.10937 15.5659 -0.701865C13.4588 -0.383817 11.6996 -1.05967 10.1491 -2.35174C8.58867 -3.64382 7.82336 -5.41296 7.35623 -7.31132C7.30653 -7.52004 7.28666 -7.74863 7.29659 -7.97723L3.20172 -7.97723C3.20172 -7.97723 3.20172 -7.97723 3.21166 -7.97723C2.52587 -7.65918 1.75062 -7.29143 0.975382 -6.93363C0.885931 -6.89387 0.716966 -6.89387 0.637454 -6.94357C0.170321 -7.25167 -0.276934 -7.57967 -0.813641 -7.96729C-0.813641 -7.96729 -0.803703 -7.96729 -0.803703 -7.97723L-1.22114 -7.97723C-1.22114 -7.80826 -1.00248 -7.64924 -0.565166 -7.26162C-0.266995 -6.99327 0.090809 -6.78455 0.398918 -6.56589C-0.0682152 -6.04906 -0.505532 -5.5521 -1.01242 -4.99552C-2.21504 -5.98942 -3.38785 -6.9535 -4.64016 -7.98716L-5.07748 -7.98716C-5.07748 -7.87783 -5.00791 -7.76851 -4.8787 -7.65918C-3.68602 -6.65534 -2.49334 -5.6515 -1.27084 -4.62778C-1.67834 -3.96187 -2.10571 -3.27607 -2.55297 -2.55052C-4.51096 -4.3793 -6.41925 -6.16832 -8.36729 -7.97723L-8.904 -7.97723C-8.904 -7.83808 -8.77479 -7.69894 -8.4965 -7.45046C-7.21437 -6.27766 -5.95211 -5.09491 -4.67992 -3.91216C-4.13327 -3.40527 -3.59657 -2.88845 -3.03004 -2.3915C-2.82132 -2.2126 -2.73187 -2.06351 -2.8909 -1.8051C-3.21888 -1.25845 -3.51705 -0.691925 -3.90468 -0.006133C-6.66772 -2.68967 -9.36119 -5.30363 -12.1242 -7.97722L-12.5317 -7.97722C-12.5317 -7.88777 -12.4423 -7.75857 -12.2833 -7.59955ZM-4.52089 20.3092C-3.4773 16.6517 -2.45358 13.0239 -1.40004 9.32661C-0.754007 9.69435 -0.237178 9.98258 0.269712 10.2708C0.557943 10.4398 0.657333 10.6386 0.538065 10.9964C-0.2173 13.3917 -0.932909 15.787 -1.6684 18.1823C-1.8473 18.7786 -1.81748 18.8084 -1.2112 18.9376C0.428737 19.3054 2.05873 19.6831 3.69867 20.0608C4.51367 20.2496 5.33861 20.4484 6.15361 20.6273C6.40208 20.677 6.55117 20.7565 6.54123 21.0348C6.53129 21.6609 6.54123 22.2772 6.54123 23.0126C2.79422 22.3268 -0.793762 21.2336 -4.52089 20.3092ZM5.60696 12.845C5.438 13.2326 5.2591 13.6302 5.08019 14.0178C4.69257 14.8527 4.73233 14.9521 5.6169 15.131C6.0741 15.2205 6.54123 15.2503 7.00836 15.3C6.8891 15.8864 6.78971 16.4628 6.64062 17.0194C6.6108 17.1387 6.40208 17.3076 6.30269 17.2878C4.91123 17.0691 3.51977 16.8107 2.12831 16.5622C2.10843 16.5622 2.08855 16.5225 1.9991 16.433C2.51593 15.0415 3.05264 13.6203 3.58934 12.1791C4.30495 12.4176 4.92117 12.6164 5.60696 12.845ZM8.79739 12.6761C8.47934 13.0836 8.02214 13.4513 7.8333 13.9284C7.4258 14.9422 6.68038 14.8925 5.8455 14.7633C5.69641 14.7434 5.53739 14.7136 5.27897 14.6639C5.53739 14.0775 5.78587 13.5209 6.04428 12.9643C6.0741 12.8947 6.23312 12.8748 6.33251 12.8649C7.14751 12.7953 7.96251 12.7357 8.79739 12.6761ZM2.48611 13.9085C2.178 14.7434 1.89971 15.5783 1.60154 16.4131C1.48227 16.7511 1.57172 16.92 1.95934 16.9797C2.72465 17.0989 3.48001 17.2878 4.24532 17.4269C5.01062 17.5561 5.77593 17.6555 6.58099 17.7648C6.54123 18.5798 6.51141 19.3849 6.47166 20.2297C3.88751 19.6334 1.32325 19.037 -1.27084 18.4407C-0.505531 15.9261 0.269711 13.4016 1.05489 10.8274C1.79038 11.225 2.48611 11.5927 3.2216 11.9903C2.97312 12.6462 2.71471 13.2724 2.48611 13.9085ZM14.9397 29.5128C12.8525 29.4631 10.7554 29.4332 8.66818 29.4233C8.1116 29.4233 7.55501 29.5028 7.02824 29.5426C7.02824 27.5945 7.02824 25.6365 7.02824 23.6786C7.02824 23.0524 7.03818 22.4262 7.02824 21.8001C7.0183 21.3628 6.94873 20.9354 6.94873 20.4981C6.93879 19.693 6.91891 18.878 6.97855 18.0729C7.02824 17.4269 7.16739 16.7809 7.28666 16.1448C7.50532 14.9819 8.20105 14.0874 8.91665 13.1929C9.73165 12.1791 10.9542 11.7815 11.9381 11.1057C12.2263 11.374 12.5046 11.6225 12.8127 11.9008C12.2959 12.2586 11.7592 12.5568 11.3219 12.9544C9.79129 14.3458 8.81727 16.0156 8.49922 18.1127C8.2408 19.8023 8.26068 21.492 8.22092 23.1816C8.18117 24.7222 8.32031 26.2627 8.37001 27.8032C8.37995 28.0617 8.45946 28.161 8.71788 28.171C9.12537 28.171 9.52293 28.2306 9.93043 28.2406C11.7294 28.2704 13.5184 28.33 15.3174 28.3002C17.2654 28.2704 19.2234 28.1213 21.0025 27.2467C21.6684 26.9187 22.225 26.3521 22.8114 25.885C23.0897 25.6664 23.3779 25.4477 23.6065 25.1793C23.9643 24.7321 24.2724 24.2451 24.6501 23.7183C24.9185 24.0264 25.1669 24.3047 25.4254 24.6128C24.7694 25.5868 24.3221 26.7895 23.3382 27.6542C22.066 28.7673 20.6248 29.3935 18.9451 29.4929C18.1401 29.5426 17.335 29.6221 16.5299 29.632C15.9833 29.6618 15.4665 29.5227 14.9397 29.5128ZM6.57105 -0.224787C6.19336 0.301981 5.93495 0.759171 5.56721 1.13685C5.41812 1.28594 5.07026 1.31576 4.82178 1.28594C3.66885 1.11698 2.53581 0.788996 1.38288 0.759179C-0.00858144 0.719423 -1.38017 0.967891 -2.50327 1.93198C-2.52315 1.95185 -2.56291 1.94192 -2.73187 1.95186C-2.09577 0.977837 -1.52925 0.0634425 -0.903093 -0.811191C-0.376325 -1.53674 0.418797 -1.68582 1.24373 -1.46716C2.06867 -1.24851 2.87373 -0.940401 3.67879 -0.65217C4.60312 -0.334121 5.49763 0.0634446 6.57105 -0.224787ZM2.02892 1.20643C2.94331 1.26607 3.8577 1.56424 4.74227 1.85247C5.438 2.07113 5.64672 2.6774 5.23922 3.22405C3.78812 5.19197 1.89971 6.48404 -0.604922 6.51386C-1.95663 6.5238 -3.16919 5.92747 -4.23266 5.09259C-2.97041 2.10094 -1.05218 0.987776 2.02892 1.20643ZM4.36459 4.84411C4.77208 4.47637 5.15971 4.09868 5.55727 3.721C5.7958 3.4924 6.0244 3.4129 6.35239 3.5918C6.75989 3.81046 7.1972 3.96948 7.74385 4.20801C6.2033 4.77454 5.53739 6.12624 4.56337 7.1599C4.22544 7.5177 3.89745 7.90533 3.49989 8.21344C2.7644 8.77997 1.94941 8.73027 1.16422 8.34264C0.329346 7.93514 -0.475714 7.46801 -1.34041 7.00088C-0.694373 6.96112 -0.117909 6.981 0.428736 6.88161C1.93947 6.59338 3.24148 5.86783 4.36459 4.84411ZM6.0244 6.04673C6.64062 5.25161 7.4258 4.71491 8.35013 4.39686C8.6483 4.29747 8.99617 4.31735 9.31421 4.28753C9.35397 4.32729 9.39373 4.3571 9.43348 4.39686C8.58867 5.97716 7.76373 7.57734 6.86922 9.13776C6.67044 9.49557 6.26294 9.75399 5.92501 10.0124C5.64672 10.2211 5.32867 10.1714 5.00068 10.0422C4.30495 9.78381 3.59928 9.5552 2.82404 9.28685C4.20556 8.41222 5.11001 7.21954 6.0244 6.04673ZM9.22476 5.58954C9.53287 4.79442 10 4.10862 10.7852 3.66137C11.2722 3.39301 11.6896 3.01533 12.1767 2.66747C11.9083 3.3135 11.63 3.90985 11.4113 4.53601C11.0834 5.4504 11.0436 6.40453 11.1231 7.35868C11.1927 8.26313 10.7156 8.77996 10.0298 9.21728C9.27446 9.69435 8.44952 9.93289 7.56495 10.0422C7.22702 10.082 6.89903 10.1317 6.55117 10.1714C7.82336 8.85947 8.56879 7.25929 9.22476 5.58954ZM11.7195 8.87935C11.3815 7.06051 11.3915 5.27148 12.2462 3.58185C13.0314 2.05124 14.0651 0.749232 15.8243 0.192646C16.0827 0.649841 16.351 1.11698 16.5697 1.51454C15.9833 2.13076 15.3671 2.66747 14.8801 3.30356C14.1446 4.26765 13.7172 5.40069 13.5979 6.61325C13.5482 7.1599 13.5582 7.72643 13.5979 8.28301C13.7172 9.80368 14.7509 10.6386 15.9634 11.3045C16.9573 11.8511 18.0506 12.0101 19.1538 12.0797C20.1378 12.1493 21.0621 11.8511 21.9666 11.4933C22.0461 11.4635 22.1355 11.4237 22.2449 11.384C22.5331 11.8611 22.8015 12.3282 23.0797 12.7854C20.8534 14.7036 17.1959 14.5943 14.8502 12.9742C14.1744 12.5071 13.5284 11.9803 12.9022 11.4536C12.127 10.7876 11.8984 9.84344 11.7195 8.87935ZM41.4371 -4.90607C41.2085 -4.26003 41.0296 -3.65375 41.2781 -3.01765C41.3079 -2.9282 41.2781 -2.78906 41.2185 -2.70955C40.6022 -1.85479 39.8966 -1.38766 38.8331 -1.70571C38.5846 -1.77528 38.2964 -2.10327 38.2169 -2.36168C37.9585 -3.27607 38.3958 -4.20041 39.2108 -4.66754C39.3201 -4.72718 39.4891 -4.75699 39.6083 -4.71724C40.2245 -4.50852 40.801 -4.68741 41.4371 -4.90607ZM49.4877 -4.72717C49.607 -4.76693 49.7958 -4.70729 49.9151 -4.63772C50.7301 -4.12089 51.1078 -3.27607 50.8593 -2.36168C50.7798 -2.09333 50.4717 -1.77528 50.2033 -1.68583C49.3287 -1.40754 48.305 -1.89455 47.8577 -2.70955C47.818 -2.78906 47.7583 -2.90833 47.7881 -2.96796C48.1062 -3.62393 47.8478 -4.23022 47.6589 -4.89613C48.295 -4.69735 48.8616 -4.49858 49.4877 -4.72717ZM85.3974 -0.652174C86.0732 -0.900649 86.7391 -1.169 87.4249 -1.36778C89.2338 -1.89455 89.7705 -1.20876 90.516 -0.115464C90.9533 0.530572 91.321 1.21637 91.649 1.96179C91.4801 1.83259 91.331 1.67356 91.1421 1.57417C89.8004 0.868499 88.3691 0.580262 86.8584 0.798921C85.954 0.928128 85.0594 1.15673 84.1649 1.33563C83.8668 1.39526 83.6382 1.36545 83.4593 1.06728C83.2009 0.649843 82.8729 0.272158 82.5051 -0.214854C83.5885 0.0435603 84.4929 -0.324186 85.3974 -0.652174ZM90.2476 1.62386C91.4304 2.05124 92.1559 3.02526 92.8318 4.0291C93.0405 4.33721 93.1697 4.69502 93.3585 5.06276C92.1162 5.98709 90.7744 6.59337 89.2338 6.50392C88.5679 6.46416 87.902 6.22564 87.2659 5.97716C85.9838 5.46033 84.9203 4.62545 84.0655 3.5421C83.3996 2.68734 83.5388 2.1407 84.5426 1.75308C86.4211 1.01759 88.3393 0.938072 90.2476 1.62386ZM83.5885 3.77069C84.5029 4.54593 85.3974 5.35099 86.3813 6.01691C87.3156 6.64306 88.4188 6.9313 89.5519 6.981C89.8103 6.99094 90.0687 6.92137 90.4365 6.87167C90.2476 7.01082 90.1383 7.11021 90.019 7.16984C89.2239 7.58728 88.4387 8.03454 87.6237 8.41222C86.6099 8.88929 85.7552 8.50166 85.0594 7.75623C84.324 6.97105 83.6779 6.10637 82.9424 5.33112C82.5151 4.88387 81.9783 4.52605 81.4814 4.12849C81.8491 3.96947 82.2765 3.82039 82.6641 3.60173C83.0617 3.39301 83.3002 3.52221 83.5885 3.77069ZM86.2621 9.29678C85.3377 9.60489 84.5128 10.0025 83.6382 10.1416C83.0716 10.2311 82.6045 9.71422 82.2566 9.23715C81.4118 8.08423 80.7857 6.82197 80.2688 5.49015C80.1198 5.10252 79.921 4.73478 79.7123 4.29746C81.3124 4.27759 82.356 5.14228 83.2605 6.2952C84.1053 7.3885 84.97 8.48178 86.2621 9.29678ZM80.1198 6.17594C80.567 7.6171 81.3323 8.93898 82.4852 10.1217C81.4615 10.0621 80.5372 9.94283 79.6824 9.54526C79.3843 9.40612 79.106 9.23716 78.8277 9.05826C78.2413 8.6607 77.8934 8.13393 77.9431 7.36862C78.0624 5.72868 77.7642 4.16825 76.8796 2.72709C78.2413 3.63154 79.5831 4.45649 80.1198 6.17594ZM77.4561 5.5796C77.7443 7.11021 77.5157 8.62094 77.0585 10.0919C76.9393 10.4696 76.7305 10.8572 76.4622 11.1355C75.1006 12.527 73.5799 13.6898 71.612 14.0476C69.8229 14.3756 68.0737 14.2564 66.5132 13.1531C66.3443 13.0339 66.1753 12.9345 65.9765 12.8053C66.2648 12.3083 66.5331 11.8611 66.7717 11.4734C67.5767 11.6623 68.342 11.8909 69.1173 12.0201C70.1907 12.199 71.2542 11.9903 72.2779 11.6523C73.1128 11.374 73.8482 10.9168 74.5042 10.3205C75.1602 9.73411 75.4186 8.97874 75.4882 8.16374C75.7267 5.48021 74.7527 3.33338 72.5959 1.71332C72.5562 1.6835 72.5264 1.65369 72.4667 1.60399C72.7351 1.13686 72.9935 0.659782 73.2718 0.17277C75.7168 1.17661 76.989 3.07497 77.4561 5.5796ZM74.5241 15.6975C73.6793 15.8068 72.8543 15.9659 72.0493 15.618C71.3734 15.3298 70.7274 15.0018 70.1807 14.7533C71.115 14.5247 72.1586 14.3061 73.1724 13.9979C73.6395 13.8588 74.0868 13.5805 74.4843 13.2823C75.2596 12.7059 75.9851 12.9047 76.7504 13.2923C77.8338 13.8389 78.4997 14.803 79.2551 15.7572C77.6549 15.4391 76.0845 15.4888 74.5241 15.6975ZM59.9535 25.4179C60.7089 25.3881 61.1959 25.716 61.6034 26.2826C62.3786 27.356 62.5774 28.5984 62.6967 29.96C61.3947 28.7176 59.8939 28.002 58.3334 27.3858C57.429 27.028 56.6438 26.541 56.1568 25.6465C55.9083 25.1893 55.5505 24.8017 55.2921 24.4439C56.1071 24.7122 56.942 25.07 57.8265 25.2688C58.5123 25.4278 59.2478 25.4477 59.9535 25.4179ZM33.9033 24.3146C32.9194 25.557 32.2833 26.9684 30.6334 27.4554C29.3612 27.8331 27.3237 28.9363 26.4093 29.96C26.4789 28.4493 26.6777 27.6542 27.2641 26.6106C27.7014 25.8353 28.2679 25.3682 29.2519 25.4179C30.862 25.5073 31.7863 25.398 33.9033 24.3146ZM8.84708 27.7734C8.61849 26.2229 8.75763 24.7619 9.58257 23.4897C10.3379 22.3268 11.461 21.5317 12.7631 21.0447C13.5284 20.7565 14.3334 20.5478 15.1484 20.4384C15.8441 20.349 16.1821 20.7068 16.1224 21.4224C16.0131 22.9232 15.4168 24.2451 14.562 25.4676C13.3495 27.197 11.6499 27.8629 9.59251 27.7635C9.34403 27.7635 9.1055 27.7734 8.84708 27.7734ZM9.83104 15.777C10.7355 14.5943 11.5803 13.4314 13.0712 13.014C13.5383 12.8848 13.9557 12.8848 14.3931 13.1829C15.7845 14.147 17.335 14.644 19.124 14.6241C17.5537 15.4391 16.0926 16.0951 14.2837 15.6876C12.8624 15.3695 11.3617 15.4391 9.83104 15.777ZM20.913 14.5347C21.4796 14.3359 22.0461 14.1272 22.6226 13.9284C22.1952 15.0912 21.7976 16.2541 21.3404 17.3872C20.7242 18.9078 19.6508 19.9514 18.0208 20.339C17.653 20.4285 17.2455 20.3689 16.8579 20.3192C16.4107 20.2595 16.2119 19.9216 16.1821 19.4843C16.0727 18.063 16.6691 16.9498 17.7326 16.0553C18.6569 15.2602 19.7999 14.9123 20.913 14.5347ZM13.2898 15.9858C14.2738 16.0156 15.2577 16.2044 16.2715 16.3237C15.7746 17.3275 14.89 17.8841 13.8464 18.1525C12.9917 18.3711 12.0971 18.4606 11.2324 18.6594C10.3976 18.8482 9.57263 19.1066 8.72781 19.3451C8.8769 18.56 8.96635 17.6853 9.25458 16.8803C9.37385 16.5423 9.9205 16.2243 10.3081 16.1647C11.2921 16.0056 12.2959 15.9559 13.2898 15.9858ZM10.5168 19.2358C11.1828 19.0569 11.8785 18.9575 12.5742 18.8383C13.5979 18.6593 14.6415 18.55 15.546 17.7748C15.4963 18.4208 15.4863 18.9774 15.377 19.5042C15.3373 19.6731 15.0291 19.8421 14.8105 19.9017C13.2699 20.3291 11.7592 20.8062 10.5168 21.8697C9.74159 22.5356 8.99617 23.2214 8.73775 24.2749C8.68806 24.265 8.62842 24.255 8.57873 24.2451C8.6483 23.1816 8.70794 22.1281 8.78745 21.0646C8.86696 20.0011 9.59251 19.4942 10.5168 19.2358ZM16.4007 22.5256C16.8082 21.164 16.8281 21.164 18.2394 21.0348C18.3687 21.0248 18.5078 21.005 18.7265 20.9851C17.6034 22.4759 17.7723 24.2451 17.3549 25.8453C17.007 27.1572 16.4703 27.6641 15.1484 27.843C14.9099 27.8728 14.6614 27.8927 14.4129 27.8927C13.6973 27.9026 12.9817 27.8927 12.2065 27.8927C14.6117 26.8292 15.7149 24.8414 16.4007 22.5256ZM18.2295 23.3704C18.3687 22.4461 18.7364 21.6411 19.3327 20.9354C19.5713 20.6571 19.8993 20.4682 20.3068 20.1403C20.4062 21.8796 20.5354 23.4798 20.5552 25.07C20.5652 25.6365 20.3266 26.213 20.1676 26.7696C20.0782 27.1075 19.8297 27.2964 19.4619 27.356C18.6867 27.4852 17.9115 27.6641 17.0766 27.8331C17.822 26.3919 18.0009 24.8712 18.2295 23.3704ZM20.9429 22.953C20.913 22.2573 20.764 21.5715 20.7043 20.8758C20.6447 20.2397 20.8236 19.6533 21.1218 19.0867C21.3802 18.5997 21.579 18.063 21.8473 17.4567C21.9069 18.0232 21.9467 18.5003 22.0163 18.9675C22.1753 20.0508 22.5828 21.0447 23.2189 21.9193C23.696 22.5853 23.6761 23.2611 23.368 23.9469C22.8313 25.1595 21.8175 25.9347 20.7242 26.7398C21.1019 25.4079 21.0025 24.1755 20.9429 22.953ZM24.5408 23.0325C23.5568 21.82 22.7219 20.5378 22.4635 18.9675C22.1355 16.9697 22.384 15.0912 23.7655 13.4513C24.2227 13.7296 24.6899 13.9979 25.0377 14.2067C24.829 15.2503 24.4812 16.2143 24.4712 17.1784C24.4513 18.8482 24.8986 20.4285 26.0316 21.7603C26.956 22.8437 28.1586 23.0425 29.4606 23.0027C30.6235 22.9729 31.7366 22.625 32.6908 22.0088C33.5356 21.4621 34.2512 20.7068 35.0662 19.9912C35.4141 20.19 35.8812 20.4484 36.3483 20.7167C35.5135 23.3406 32.2435 25.1098 29.9774 24.9806C29.1823 24.9408 28.3971 24.8613 27.602 24.7917C26.3199 24.6824 25.3458 24.0264 24.5408 23.0325ZM39.0517 10.3304C39.0716 10.3106 39.1114 10.3205 39.2207 10.2907C38.9524 11.3939 38.7138 12.4574 38.4256 13.501C38.3858 13.6501 38.1274 13.7892 37.9386 13.819C36.6564 14.0278 35.8116 14.7831 35.5333 16.0056C35.2451 17.2778 35.7321 18.6693 37.213 19.0867C39.2207 19.6533 40.7116 17.7947 40.4432 16.0851C40.3041 15.2403 39.8866 14.6142 39.2505 14.0973C39.1511 14.0178 39.0319 13.8489 39.0517 13.7495C39.3499 12.6661 39.6878 11.5828 40.0059 10.4895C40.3339 11.056 40.5923 11.6225 40.9501 12.1195C41.7055 13.1531 42.8484 13.5904 44.0113 13.988C44.1306 14.0278 44.3194 14.1669 44.3194 14.2365C44.22 15.1111 44.2101 16.0255 43.9318 16.8504C43.1864 19.0569 41.5862 20.2893 39.2505 20.4583C38.4852 20.508 37.6802 20.5478 36.9447 20.3589C36.2291 20.1701 35.5433 19.7626 34.937 19.3253C34.1319 18.7389 33.3666 18.063 32.9591 17.1089C32.7603 16.6417 32.6212 16.1448 32.5516 15.6379C32.3628 14.1371 32.82 12.7655 33.5654 11.4834C33.625 11.374 33.8437 11.2548 33.953 11.2846C35.8116 11.7517 37.541 11.6523 39.0517 10.3304ZM37.6802 -1.14912C37.2925 -0.393757 37.1236 0.361611 37.2528 1.17661C37.2727 1.276 37.1931 1.43502 37.1037 1.49465C36.6763 1.80276 36.2589 2.13075 35.7917 2.37923C35.2948 2.63764 34.778 2.4985 34.4003 2.091C34.0226 1.69344 33.8835 1.21637 34.1618 0.729355C34.4102 0.282099 34.7183 -0.125406 35.0165 -0.542844C35.0861 -0.632296 35.2352 -0.731681 35.3246 -0.711803C36.1496 -0.592535 36.9248 -0.751561 37.6802 -1.14912ZM37.7398 -0.115462C37.8094 -0.304303 37.8889 -0.493142 37.9783 -0.672045C38.3163 -1.3479 38.3163 -1.33796 39.0716 -1.19882C39.6978 -1.07955 40.2643 -1.27832 40.8905 -1.67588C40.7613 -0.761493 41.1091 -0.105523 41.6458 0.480879C41.7154 0.550452 41.775 0.689599 41.7452 0.77905C41.457 1.99161 40.0059 2.79667 38.853 2.38917C38.1672 2.14069 37.3025 1.03746 37.7398 -0.115462ZM50.4319 -1.28827C50.5313 -1.31809 50.7202 -1.25844 50.7798 -1.17893C51.4855 -0.254604 51.7936 0.898315 50.8991 1.88228C50.1735 2.6774 48.9609 2.73704 48.1559 1.9618C47.8577 1.67356 47.6192 1.31576 47.4005 0.957957C47.3309 0.838689 47.3608 0.560386 47.4602 0.451057C47.977 -0.135345 48.295 -0.781372 48.1956 -1.67588C48.951 -1.15905 49.6666 -1.05967 50.4319 -1.28827ZM53.682 -0.701867C53.8012 -0.711806 53.9801 -0.652167 54.0497 -0.572655C54.3578 -0.165155 54.6759 0.24234 54.9045 0.689596C55.1927 1.24618 55.0834 1.69344 54.6461 2.12082C54.2386 2.51838 53.7714 2.62771 53.2447 2.34942C52.7974 2.11088 52.3899 1.79282 51.9824 1.49465C51.893 1.43502 51.8134 1.276 51.8333 1.17661C52.0023 0.321854 51.7538 -0.443453 51.3662 -1.19882C52.1116 -0.761501 52.867 -0.612416 53.682 -0.701867ZM53.4931 11.4933C54.0398 11.4138 54.5864 11.3343 55.1331 11.2846C55.2523 11.2747 55.4312 11.374 55.4909 11.4734C56.4351 13.0339 56.8128 14.7235 56.3556 16.5026C56.2065 17.079 55.8387 17.6456 55.4511 18.1127C54.9939 18.6593 54.4175 19.1066 53.8609 19.5539C52.6185 20.5378 51.1873 20.7764 49.6666 20.4384C48.9609 20.2794 48.2453 20.0906 47.5695 19.8322C46.7843 19.534 46.3072 18.878 45.8302 18.2022C44.9655 16.9995 44.876 15.6379 44.7667 14.2564C44.7567 14.1768 44.876 14.0178 44.9555 13.9979C46.8737 13.4811 48.3845 12.5071 49.0703 10.4795C49.3883 11.5529 49.7163 12.6164 50.0145 13.6998C50.0443 13.819 49.925 14.0377 49.8058 14.1272C48.792 14.9422 48.4541 15.9957 48.7025 17.248C48.8914 18.1922 49.9747 19.047 50.909 19.1563C51.6246 19.2358 52.2209 19.0271 52.7676 18.6196C53.7217 17.904 53.9304 16.1547 53.2049 15.1509C52.6881 14.4452 52.0619 13.9184 51.1475 13.8389C50.7698 13.8091 50.6506 13.5904 50.581 13.2426C50.4021 12.358 50.1636 11.4933 49.9548 10.6087C49.935 10.5193 49.925 10.4298 49.8952 10.2509C50.253 10.4895 50.5412 10.6783 50.8295 10.8672C51.6445 11.4039 52.5291 11.6225 53.4931 11.4933ZM59.9038 16.92C59.9237 16.5821 59.9436 16.2442 59.9038 15.9062C59.864 15.5882 59.7547 15.2801 59.6752 14.9322C59.9436 14.972 60.192 15.0316 60.4504 15.0515C60.7089 15.0714 60.9772 15.0515 61.2754 15.0515C61.6928 16.1646 61.8817 17.2878 61.504 18.4506C61.0965 19.6831 60.2914 20.1403 58.9 19.8719C58.1048 19.7228 57.419 19.3253 56.8426 18.7389C56.614 18.5103 56.3953 18.2618 56.1667 18.0232C56.4053 17.5362 56.6339 17.079 56.8724 16.592C57.1308 16.8306 57.3694 17.1089 57.6675 17.3176C57.9558 17.5263 58.2837 17.6953 58.6217 17.8046C59.3174 18.0531 59.8442 17.6754 59.9038 16.92ZM57.5184 19.7924C58.3533 20.349 59.3075 20.5179 60.2914 20.3192C61.2456 20.1303 62.0904 18.8084 62.1003 17.576C62.1003 17.1387 62.1202 16.6914 62.0606 16.264C62.0009 15.8367 61.8518 15.4192 61.7326 14.9819C62.319 14.803 62.8756 14.634 63.4918 14.4452C63.9788 15.3695 64.2571 16.3535 64.1975 17.3871C64.1378 18.391 63.9689 19.3849 63.4818 20.3192C62.8457 21.5118 62.0407 22.4262 60.5896 22.5256C58.0353 22.6946 56.0176 21.7404 54.497 19.6533C54.9641 19.2159 55.4014 18.8084 55.8189 18.4109C56.3854 18.8879 56.9122 19.3948 57.5184 19.7924ZM59.3969 15.7075C59.4665 16.0454 59.4565 16.4131 59.4068 16.7511C59.3273 17.2579 58.9993 17.4269 58.5223 17.248C57.916 17.0194 57.4588 16.602 57.1109 16.0653C57.0115 15.9062 56.9817 15.6876 56.9718 15.4888C56.9122 14.6837 56.8823 13.8886 56.8525 13.2923C57.2898 13.5805 57.8564 14.0377 58.4825 14.3458C59.0789 14.644 59.2677 15.1509 59.3969 15.7075ZM43.6138 21.154C44.1405 21.9989 44.9456 21.9889 45.4723 21.1441C45.7805 20.6372 45.9792 20.0607 46.2277 19.5141C46.5656 19.7328 46.9731 19.9812 47.3608 20.2496C47.4204 20.2893 47.49 20.4086 47.4701 20.4782C47.2216 21.7106 46.7942 22.8536 45.7009 23.599C44.5977 24.3445 43.902 24.1656 42.8087 23.1319C42.0732 22.4362 41.785 21.482 41.5862 20.508C41.5663 20.4285 41.6359 20.2993 41.7055 20.2496C42.0931 19.9912 42.4807 19.7427 42.8286 19.524C43.0969 20.0806 43.3056 20.6472 43.6138 21.154ZM43.3653 18.9376C43.3653 18.6395 43.6635 18.3413 43.8225 18.0431C44.0908 17.5164 44.3393 16.9797 44.5281 16.602C44.8661 17.2381 45.2935 18.0034 45.6811 18.7985C45.7606 18.9675 45.7407 19.2358 45.6612 19.4246C45.4525 19.9514 45.2338 20.4782 44.9356 20.9453C44.7468 21.2435 44.4089 21.2236 44.1306 20.9652C43.5442 20.4186 43.3752 19.6831 43.3653 18.9376ZM41.5067 21.7703C41.9738 23.0126 42.7391 23.9668 44.0511 24.3942C44.9456 24.6824 45.6513 24.2351 46.2675 23.7084C47.0527 23.0524 47.5595 22.1976 47.7484 21.1739C47.7881 20.9453 47.8776 20.7267 47.9372 20.508C48.4541 20.6173 48.9311 20.7465 49.4181 20.8261C49.6666 20.8658 49.7262 20.9553 49.6964 21.1938C49.5672 22.4362 49.1398 23.5295 48.3547 24.5134C47.4204 25.6763 46.2973 26.5112 44.8164 26.7795C44.4983 26.8392 44.1306 26.7795 43.8225 26.6702C41.3377 25.8552 39.9463 24.0761 39.3996 21.5814C39.3499 21.3727 39.3897 21.154 39.3897 20.8956C39.9363 20.7664 40.5128 20.6372 41.1389 20.4981C41.2582 20.9254 41.3477 21.3628 41.5067 21.7703ZM43.3852 8.26314C43.3752 8.75015 43.415 9.25703 43.5243 9.72417C43.6237 10.1615 44.1604 10.4994 44.558 10.4696C45.0549 10.4398 45.3928 10.1416 45.5817 9.69435C45.8401 9.06819 45.7705 8.41222 45.6314 7.76619C45.5717 7.47795 45.532 7.18972 45.4723 6.87167C45.8898 7.13009 46.2675 7.36862 46.6452 7.60715C46.7048 7.64691 46.7843 7.71649 46.7843 7.77612C46.9135 8.91911 46.9831 10.0422 46.2078 11.0361C45.1145 12.4276 43.3553 12.1195 42.5602 10.5789C42.103 9.69435 42.1527 8.7402 42.3018 7.796C42.3117 7.71648 42.4211 7.62704 42.5105 7.57734C42.8584 7.34874 43.2162 7.12015 43.6038 6.87167C43.5243 7.34875 43.3951 7.80594 43.3852 8.26314ZM44.1405 6.69277C44.22 6.3946 44.3791 6.11631 44.5381 5.72869C45.0947 6.94125 45.4326 8.08423 45.2338 9.33654C45.1742 9.71423 44.9853 9.99252 44.5778 10.0124C44.1405 10.0323 43.9417 9.7341 43.8523 9.34648C43.6436 8.43209 43.9119 7.5674 44.1405 6.69277ZM41.8546 7.86558C41.8546 8.55137 41.7949 9.1974 41.8645 9.82356C41.9838 10.9467 42.9677 12.03 43.9417 12.3083C45.2736 12.6761 46.5458 11.6722 46.993 10.6286C47.321 9.86331 47.3608 9.05825 47.2415 8.24325C47.2216 8.14386 47.2415 8.03453 47.2415 7.90532C47.3309 7.88544 47.3608 7.87551 47.3906 7.87551C48.6131 7.82582 48.6827 7.88545 48.6926 9.12783C48.7125 10.887 47.967 12.199 46.3768 12.9742C45.8401 13.2326 45.2537 13.5706 44.6872 13.5606C43.1367 13.5308 41.9042 12.7854 41.0197 11.4834C40.3239 10.4597 40.2444 9.33655 40.5227 8.16375C40.5525 8.05442 40.6917 7.88545 40.7911 7.87551C41.129 7.83576 41.4669 7.86558 41.8546 7.86558ZM52.7179 15.4987C52.857 15.8565 52.9067 16.2442 52.9962 16.6218C52.9266 17.9338 51.8631 18.7886 50.5909 18.4904C49.9847 18.3512 49.7461 17.8245 49.4778 17.3573C48.9311 16.3932 49.1001 14.9322 50.3623 14.3955C51.1972 14.0377 52.3203 14.5148 52.7179 15.4987ZM49.9648 9.61484C49.5275 9.09801 49.2989 8.40228 48.9808 7.76619C49.448 7.48789 49.7859 7.28911 50.0344 7.14002C50.5412 7.82581 50.9786 8.5613 51.565 9.16758C52.5787 10.2112 54.4771 10.2012 55.302 9.17752C56.0574 8.25319 56.1667 7.17978 55.7692 6.08649C55.5505 5.48021 55.1828 4.93356 54.8747 4.3571C55.1927 4.16826 55.5306 3.96947 55.8785 3.77069C57.6278 5.21185 57.7371 7.77612 56.604 9.28685C56.117 9.94282 55.7294 10.6684 54.8647 10.887C52.9962 11.374 51.2767 11.1454 49.9648 9.61484ZM53.7416 7.99478C54.2485 7.72642 54.4473 7.22948 54.169 6.43435C53.9901 5.90759 53.5826 5.46033 53.2546 4.98326C53.1353 4.80436 52.9763 4.65526 52.8372 4.47636C53.7516 4.23782 54.4075 4.49625 54.8647 5.24167C55.3716 6.05667 55.6897 6.90148 55.4611 7.89539C55.0337 9.7341 53.0658 9.8335 51.9725 8.97874C51.2569 8.42216 50.8494 7.65685 50.5214 6.84185C50.4915 6.76234 50.4816 6.65301 50.5114 6.58344C50.7102 6.18588 50.9289 5.78832 51.1177 5.43052C51.4656 6.13619 51.7737 6.86173 52.1911 7.53758C52.5489 8.11405 53.2447 8.26313 53.7416 7.99478ZM53.5826 6.13618C53.7019 6.33496 53.8012 6.55362 53.841 6.78222C53.9006 7.12015 53.8708 7.5177 53.4931 7.60715C53.2447 7.66679 52.8471 7.57734 52.6682 7.39843C51.9625 6.7027 51.7637 5.74856 51.5153 4.83417C51.4457 4.56582 51.4457 4.27758 51.4159 3.91978C52.37 4.52606 53.0359 5.27149 53.5826 6.13618ZM50.2431 6.21569C49.6766 7.13008 48.4342 7.62704 47.4005 7.37856C45.8699 7.01082 44.9953 5.96722 44.7567 4.33722C45.0847 4.20802 45.4028 4.08874 45.7308 3.95954C45.9594 4.43661 46.1581 4.95344 46.4364 5.41063C46.9433 6.25545 47.5397 6.43435 48.5634 6.14612C49.1995 5.96722 49.7163 5.16215 49.6368 4.46642C49.5772 3.97941 49.5473 3.48247 49.4976 2.9557C49.8157 2.906 50.1437 2.85631 50.5114 2.79668C51.078 3.98936 50.9289 5.11246 50.2431 6.21569ZM49.1498 3.86015C49.1498 4.10862 49.1895 4.3571 49.1796 4.60557C49.1697 5.25161 48.8218 5.65911 48.136 5.84795C47.6788 5.97716 47.0527 5.69886 46.7942 5.22179C46.6054 4.86398 46.4563 4.4863 46.2973 4.11856C46.1979 3.87008 46.2575 3.66137 46.3867 3.39302C46.6948 2.75692 46.8936 2.07112 47.1023 1.52448C47.4602 1.84252 47.8776 2.35935 48.4143 2.63764C48.9709 2.92587 49.1498 3.30356 49.1498 3.86015ZM44.4188 3.83032C43.1566 3.78063 42.0831 2.13076 42.5801 0.97783C42.6298 0.858562 42.8186 0.759177 42.9578 0.709481C43.7529 0.431189 44.1604 0.0833159 44.548 -0.701867C44.8859 0.0534987 45.4127 0.52064 46.1482 0.709481C46.4464 0.779054 46.5358 0.948015 46.5756 1.21637C46.8042 2.60783 45.7606 3.88996 44.4188 3.83032ZM47.0527 0.21253C46.9036 0.331799 46.6352 0.381484 46.4364 0.351667C45.4922 0.22246 44.6673 -0.841014 44.7468 -1.8051C44.7567 -1.87467 44.7667 -1.984 44.8064 -2.01382C45.4326 -2.40144 45.4823 -3.09717 45.7009 -3.70345C46.1581 -3.28601 46.506 -2.70955 47.2216 -2.70955C47.2912 -2.70955 47.3707 -2.61016 47.4204 -2.54059C48.0068 -1.70571 47.8478 -0.443445 47.0527 0.21253ZM44.9456 -2.82882C44.876 -2.6698 44.6673 -2.48096 44.5381 -2.48096C44.3989 -2.48096 44.2002 -2.67974 44.1206 -2.82882C43.5939 -3.96187 44.0213 -4.99552 44.5281 -6.12857C45.0748 -4.98559 45.4823 -3.96187 44.9456 -2.82882ZM44.2797 -2.02375C44.3095 -2.00387 44.3294 -1.94424 44.3393 -1.90449C44.5778 -1.00998 43.4249 0.371555 42.5006 0.361616C41.8943 0.351677 41.1389 -0.850949 41.3079 -1.50692C41.3874 -1.79516 41.4669 -2.07345 41.5564 -2.35174C41.6359 -2.58034 41.8049 -2.65985 42.0434 -2.75924C42.4807 -2.95802 42.8485 -3.30589 43.246 -3.59412C43.2957 -3.62394 43.3056 -3.70345 43.3653 -3.81278C43.574 -3.08723 43.6535 -2.41137 44.2797 -2.02375ZM41.7949 1.6338C41.8844 1.55429 41.9341 1.44497 42.0732 1.26606C42.0434 2.20033 42.2919 2.93581 42.8087 3.57191C42.8683 3.64149 42.8783 3.79057 42.8485 3.88002C42.6298 4.39685 42.4608 4.9435 42.1527 5.40069C41.8148 5.90758 41.2483 5.98709 40.6519 5.7585C40.1848 5.58953 39.8767 5.12241 39.8866 4.536C39.8866 4.1782 39.9164 3.82039 39.9661 3.46259C40.0158 3.15448 40.145 2.95569 40.473 2.77679C40.97 2.48856 41.3675 2.02142 41.7949 1.6338ZM39.5785 2.9557C39.5388 3.4924 39.4791 4.0291 39.4692 4.57575C39.4493 5.32118 39.8767 5.94734 40.4929 6.14612C41.4471 6.45423 42.113 6.28527 42.5801 5.52991C42.8783 5.04289 43.0969 4.50618 43.3553 3.97941C43.6634 4.09868 43.9914 4.21796 44.3095 4.33722C44.1206 6.02686 43.2162 6.92136 41.8943 7.3388C40.811 7.67673 39.7276 7.36862 39.0021 6.43435C38.1473 5.34106 37.9286 4.11856 38.5647 2.80661C38.9325 2.85631 39.2505 2.906 39.5785 2.9557ZM36.8652 7.56741C37.2925 6.89155 37.6007 6.13618 37.9585 5.44045C38.1473 5.78832 38.356 6.17594 38.5647 6.58344C38.5946 6.64307 38.6144 6.73252 38.5846 6.79216C38.2268 7.68667 37.7696 8.50166 36.9745 9.09801C36.4179 9.51544 35.0662 9.65459 34.45 9.18746C33.8039 8.70045 33.3865 7.66679 33.5753 6.76234C33.7443 5.94734 34.1617 5.26154 34.6885 4.62545C34.7382 4.56581 34.8376 4.49625 34.9072 4.49625C35.3445 4.46643 35.7719 4.44655 36.2986 4.41673C36.0104 4.76459 35.7421 5.05283 35.5135 5.38082C35.2849 5.70881 35.0662 6.05667 34.9072 6.42442C34.6289 7.06052 34.8078 7.68667 35.3147 7.98484C35.8116 8.26313 36.5074 8.13393 36.8652 7.56741ZM36.5173 7.30898C36.2887 7.62703 35.9408 7.83575 35.5433 7.59722C35.1457 7.36862 35.1656 6.97106 35.3047 6.60331C35.7421 5.4802 36.5769 4.69503 37.5808 4.03905C37.5609 5.25161 37.223 6.3449 36.5173 7.30898ZM33.7443 5.17209C33.0983 6.27532 32.8399 7.40837 33.4362 8.64081C33.9928 9.7838 35.0364 10.1217 36.2191 9.85337C37.5211 9.5552 38.2169 8.611 38.7436 7.48789C38.7933 7.3885 38.8331 7.28911 38.8828 7.18972C38.9027 7.14996 38.9325 7.12014 38.9524 7.09033C39.3102 7.29905 39.6481 7.50776 40.0059 7.70654C39.5785 10.0223 37.5112 11.1454 36.0104 11.0958C35.4836 11.0759 34.9569 11.0361 34.44 10.9467C33.9232 10.8572 33.4461 10.6286 33.148 10.1814C32.7305 9.56514 32.2236 8.9688 31.9851 8.28301C31.4782 6.81204 31.6969 5.4007 32.7902 4.19808C32.9293 4.04899 33.0585 3.8999 33.1877 3.76076C33.5455 3.96948 33.8835 4.16826 34.2611 4.38692C34.0922 4.64533 33.9033 4.90374 33.7443 5.17209ZM38.197 14.2663C38.8231 14.2762 39.5388 14.803 39.7475 15.4292C40.0655 16.3634 39.7276 17.6257 38.9623 18.2419C38.8033 18.3711 38.5548 18.5103 38.3759 18.4804C37.7994 18.391 37.2031 18.2916 36.6863 18.0531C36.0899 17.7748 36.1694 17.1287 36.1496 16.6417C36.1595 15.2204 37.0142 14.2564 38.197 14.2663ZM30.5141 17.8046C31.021 17.576 31.4683 17.1884 31.9255 16.8604C32.0249 16.7908 32.0746 16.6616 32.164 16.5324C32.4324 17.0393 32.661 17.4667 32.8697 17.894C32.8995 17.9636 32.8796 18.1127 32.8299 18.1723C32.1739 18.8382 31.4981 19.4743 30.5936 19.8123C29.1425 20.349 27.771 19.6334 27.4728 18.0928C27.274 17.0592 27.4132 16.0454 27.8107 15.1012C28.3474 15.0614 28.8742 15.0217 29.391 14.9819C29.3016 15.3994 29.1823 15.8168 29.1425 16.2342C29.1127 16.5324 29.1425 16.8604 29.2221 17.1586C29.391 17.7847 29.9079 18.0829 30.5141 17.8046ZM32.1243 15.5882C32.1044 15.8068 32.0249 16.0653 31.8857 16.2243C31.5975 16.5423 31.2794 16.8703 30.9018 17.079C30.6334 17.2281 30.1563 17.3474 29.9675 17.2082C29.7389 17.0393 29.6097 16.5821 29.6196 16.264C29.6296 15.8267 29.719 15.3298 29.9575 14.972C30.1961 14.6142 30.6533 14.3955 31.031 14.1371C31.4583 13.829 31.8957 13.5407 32.2336 13.3122C32.2038 13.9781 32.1839 14.7831 32.1243 15.5882ZM27.3535 14.9819C27.284 15.2503 27.2044 15.5286 27.1349 15.8069C26.8765 16.8107 26.8665 17.8245 27.2541 18.7886C27.9101 20.3987 29.1227 20.7167 30.8819 20.1104C31.349 19.9514 31.7863 19.6831 32.1839 19.3849C32.5616 19.0967 32.8597 18.6991 33.1977 18.3413C33.6946 18.7985 34.1319 19.206 34.5891 19.6334C33.4263 21.3826 31.7764 22.2772 29.7389 22.5157C29.2817 22.5654 28.8146 22.5455 28.3574 22.5057C26.9659 22.3765 26.2006 21.4522 25.6142 20.2993C25.0079 19.0967 24.7694 17.8145 24.9483 16.4926C25.0377 15.7969 25.316 15.1211 25.5049 14.4253C26.1807 14.634 26.7373 14.803 27.3535 14.9819ZM36.4974 21.9591C36.6763 22.8636 36.8453 23.7879 37.0341 24.7122C37.2826 25.9049 37.3124 27.0777 36.8453 28.2406C36.5074 29.0655 35.9607 29.7115 35.2053 30.1588C34.4003 30.6259 33.9232 30.4868 33.5058 29.642C32.9591 28.5487 32.9094 27.4057 33.3468 26.2528C33.8039 25.0402 34.6786 24.1159 35.5035 23.1717C35.8514 22.7542 36.1893 22.3368 36.4974 21.9591ZM27.2939 29.7314C28.4269 29.0456 29.5997 28.4493 30.7725 27.8331C31.2198 27.5945 31.7068 27.4156 32.2236 27.197C32.2535 28.6083 31.5478 29.6022 30.5539 30.4669C29.5799 31.3117 28.6357 32.2062 27.6915 33.0809C27.5324 33.2299 27.433 33.4287 27.2541 33.6772C27.0057 33.0014 26.7472 32.3752 26.5485 31.7391C26.2801 30.8346 26.469 30.2383 27.2939 29.7314ZM28.8841 32.4348C29.6097 31.759 30.4147 31.1527 31.1403 30.4669C31.6074 30.0296 31.9752 29.4929 32.4025 28.986C32.6013 29.4233 32.8697 29.9203 33.0386 30.457C33.0883 30.606 32.8896 30.8744 32.7604 31.0533C32.0646 31.9081 31.2993 32.7131 30.6632 33.6176C29.9575 34.6214 29.6494 35.8141 29.5401 37.0366C29.5202 37.2851 29.6097 37.5534 29.6494 37.8118C29.6097 37.8317 29.5699 37.8516 29.5302 37.8715C29.0829 37.0068 28.6058 36.152 28.1884 35.2774C27.5921 34.0748 28.0095 33.2399 28.8841 32.4348ZM29.9973 37.1161C29.9675 36.3011 30.2756 35.4364 30.5936 34.6512C31.1105 33.3592 31.9752 32.2857 33.0983 31.4509C33.8338 30.9042 34.4102 31.0632 34.7482 31.918C35.4538 33.6971 35.5731 35.506 35.0364 37.3546C34.6388 38.7163 33.6151 39.5412 32.5119 40.2966C32.2038 40.5053 31.846 40.6345 31.4882 40.8234C30.5738 39.7102 30.0569 38.4579 29.9973 37.1161ZM35.0264 38.4579C35.9309 36.649 35.9707 34.7506 35.5035 32.8225C35.4041 32.405 35.2451 31.9876 35.1855 31.5602C35.1557 31.3714 35.2252 31.0931 35.3544 30.9738C35.7619 30.6259 36.2191 30.3377 36.7459 29.97C36.4875 30.944 36.7857 31.749 37.0739 32.5541C37.3621 33.3592 37.6901 34.1543 37.9286 34.9792C38.3063 36.311 37.9982 37.0962 36.8353 37.8417C36.1197 38.2989 35.3842 38.7262 34.5891 39.094C34.7283 38.8952 34.9072 38.6964 35.0264 38.4579ZM37.2727 31.7888C36.9248 30.6856 37.0242 29.6618 37.6404 28.5685C38.515 29.8805 39.34 31.1229 40.1649 32.3653C40.5724 32.9815 40.8308 33.6772 40.8607 34.4127C40.8706 34.6711 40.6619 34.9991 40.4631 35.1979C39.9164 35.7346 39.3102 36.2216 38.6542 36.7981C38.6244 34.9295 37.7796 33.4089 37.2727 31.7888ZM38.5945 29.304C38.038 28.6182 37.7696 27.8231 37.7696 26.9187C37.7696 26.4217 37.6802 25.9347 37.6106 25.3185C37.7398 25.4875 37.7994 25.567 37.8491 25.6465C38.5945 26.9286 39.6282 27.9126 40.96 28.5288C41.8645 28.9462 42.1726 29.632 42.2024 30.5265C42.2521 31.7292 41.7949 32.8125 41.298 33.9555C40.7116 32.1565 39.7276 30.6955 38.5945 29.304ZM43.6237 29.1152C42.0533 28.7574 40.6122 28.0716 39.4394 26.9584C38.3262 25.9148 37.5808 24.6128 37.2925 23.1021C37.1633 22.4262 37.2031 21.7305 37.1633 20.9851C37.7398 20.9851 38.2169 20.9652 38.6939 21.005C38.7933 21.0149 38.9424 21.2236 38.9623 21.3528C39.2008 23.6786 40.473 25.3384 42.3714 26.5509C43.8225 27.4852 45.3332 27.4554 46.7744 26.5112C48.5038 25.3881 49.6766 23.8575 50.0642 21.7901C50.2133 20.9751 50.2331 20.9751 51.068 20.9751C51.3165 20.9751 51.565 20.9751 51.8333 20.9751C52.1315 23.122 51.4358 24.8812 50.1238 26.4317C48.8417 27.9523 47.1123 28.7276 45.2338 29.1649C44.7269 29.2941 44.1405 29.2345 43.6237 29.1152ZM52.5887 21.969C53.3639 22.9033 54.1889 23.8177 54.9244 24.7917C55.9878 26.1931 56.3854 27.7436 55.6698 29.4332C55.1331 30.7054 54.3777 30.7154 53.2745 29.6917C51.7737 28.3201 51.7041 26.5609 52.042 24.7221C52.2209 23.8078 52.4098 22.8834 52.5887 21.969ZM47.7583 28.7574C49.2691 27.9821 50.5313 26.9684 51.4059 25.3483C51.4258 27.1274 51.1773 28.658 49.9847 29.9898C48.9908 31.1129 48.2255 32.4348 47.7981 33.9853C47.1819 32.4945 46.5159 31.0831 47.1123 29.4829C47.2117 29.2046 47.48 28.9065 47.7583 28.7574ZM48.4739 33.2796C49.1697 32.0671 49.9548 30.9042 50.7102 29.7314C50.9487 29.3637 51.1972 29.0059 51.4656 28.6083C52.2607 29.9302 52.0619 31.2123 51.5848 32.5143C51.1873 33.6076 50.8494 34.7307 50.5214 35.8439C50.4419 36.1023 50.4717 36.3906 50.4419 36.808C49.7064 36.1421 48.9609 35.6054 48.3845 34.9096C47.9969 34.4624 48.1956 33.7667 48.4739 33.2796ZM51.0978 35.2674C51.2966 34.4723 51.6345 33.707 51.8631 32.9218C52.0818 32.1864 52.2706 31.431 52.4297 30.6756C52.4694 30.4768 52.3899 30.2482 52.3601 29.9898C52.8471 30.3377 53.2844 30.6359 53.7019 30.9539C53.9901 31.1726 53.9305 31.4608 53.841 31.759C53.5031 32.9417 53.2148 34.1344 53.2844 35.3768C53.3341 36.4204 53.5031 37.454 54.01 38.3883C54.1392 38.6268 54.3181 38.8455 54.4373 39.1635C53.8708 38.8256 53.2944 38.5076 52.7378 38.1597C52.37 37.9311 52.0122 37.6727 51.6842 37.3944C50.9984 36.8378 50.8991 36.0626 51.0978 35.2674ZM53.7615 35.9135C53.6422 34.5121 53.8509 33.1803 54.3479 31.8981C54.6759 31.0632 55.2722 30.8843 55.968 31.4409C57.6973 32.8125 58.8801 34.5419 59.049 36.7981C59.1584 38.2989 58.5223 39.6108 57.6178 40.8234C55.471 39.8295 53.9603 38.4181 53.7615 35.9135ZM57.9955 32.9417C57.5085 32.2758 56.9221 31.6894 56.3556 31.0831C56.0673 30.775 55.9282 30.5166 56.1767 30.0992C56.3953 29.7314 56.5345 29.314 56.7333 28.8667C56.932 29.2046 57.0712 29.5624 57.3097 29.8109C57.8862 30.3973 58.5223 30.9241 59.1286 31.4807C59.6454 31.9478 60.202 32.3951 60.6492 32.9218C61.0567 33.4089 61.3251 33.9953 61.1164 34.691C60.7586 35.8439 60.1125 36.8378 59.4466 37.951C59.715 35.9731 59.049 34.3928 57.9955 32.9417ZM58.1645 30.119C57.3197 29.3438 56.8227 28.3896 56.8625 27.187C58.572 27.9821 60.361 28.6083 61.8717 29.7612C62.6172 30.3377 62.7861 30.8545 62.5277 31.7789C62.4879 31.9279 62.4482 32.077 62.3886 32.2261C62.2097 32.6932 62.0307 33.1504 61.822 33.6772C60.8579 32.1764 59.4068 31.2521 58.1645 30.119ZM56.7432 24.5731C54.9442 23.7978 53.4236 22.7145 52.7378 20.7267C53.195 20.4682 53.6522 20.2098 54.0895 19.9614C54.6162 20.4981 55.1033 21.1043 55.6996 21.5715C56.7333 22.3865 57.9458 22.8337 59.2677 22.9629C59.7945 23.0126 60.3312 23.0027 60.848 22.9431C62.5973 22.7443 63.4818 21.5118 64.0682 20.0409C64.8435 18.1226 64.8336 16.1945 63.9092 14.2961C64.3863 14.0079 64.8435 13.7495 65.3206 13.4612C66.066 14.3756 66.5629 15.3894 66.6822 16.5722C66.8214 17.9736 66.712 19.3451 66.1057 20.6372C65.4995 21.9193 64.6745 23.0524 63.6111 23.9867C62.7563 24.7321 61.6431 24.8514 60.5896 24.9607C59.2876 25.0899 57.9657 25.0998 56.7432 24.5731ZM65.5591 23.4996C65.42 23.0425 65.4299 22.6051 65.7281 22.1678C66.4039 21.1839 66.9009 20.1104 67.0798 18.9178C67.1493 18.4705 67.1792 18.0133 67.2289 17.5064C68.0339 19.047 68.6402 20.508 68.2327 22.297C67.9146 23.7084 67.9544 25.1992 68.352 26.7199C67.1195 25.8254 65.9964 24.9607 65.5591 23.4996ZM68.67 26.1434C68.5706 25.0899 68.5507 24.0364 68.5806 22.9729C68.6104 22.0784 68.7595 21.1839 68.8589 20.2695C69.8627 20.7565 70.4193 21.6212 70.6777 22.6548C70.956 23.768 71.0951 24.911 71.3436 26.0242C71.4828 26.6205 71.7213 27.197 71.93 27.8231C71.0951 27.6542 70.2304 27.5349 69.4055 27.3063C68.8887 27.1671 68.7098 26.5907 68.67 26.1434ZM73.401 27.7337C72.427 27.6045 71.9698 26.8392 71.761 25.9546C71.5821 25.1893 71.4927 24.3942 71.3436 23.6189C71.1647 22.7244 71.0355 21.81 70.3099 21.005C70.9759 21.0546 71.4927 21.0348 71.9797 21.154C72.1785 21.2037 72.3971 21.5218 72.4568 21.7603C72.8742 23.2909 73.3612 24.7818 74.4048 26.0142C75.0707 26.7994 75.7764 27.5448 76.8399 27.8231C76.8299 27.8728 76.82 27.9126 76.8101 27.9623C75.677 27.8828 74.5241 27.8728 73.401 27.7337ZM75.4087 26.4814C74.2856 25.4278 73.5501 24.1059 73.1724 22.6051C73.0631 22.1877 72.9835 21.7504 72.9637 21.323C72.9438 20.7267 73.2718 20.3589 73.8582 20.4384C74.6931 20.5577 75.5379 20.7465 76.333 21.0447C77.7145 21.5715 78.9171 22.4163 79.6526 23.7282C80.1695 24.6426 80.3981 25.6862 80.3185 26.7696C80.2987 27.0777 80.3185 27.3858 80.3185 27.7337C78.4898 27.8828 76.7802 27.7635 75.4087 26.4814ZM80.3185 24.1954C79.8812 22.784 78.7879 21.9492 77.6151 21.2037C76.5815 20.5378 75.4087 20.2098 74.2259 19.9117C73.8681 19.8222 73.6693 19.6234 73.6693 19.2259C73.6594 18.7786 73.5898 18.3314 73.5302 17.7847C74.8322 18.8382 76.3827 18.719 77.804 19.0668C78.132 19.1464 78.4798 19.1961 78.7979 19.3054C79.8315 19.6433 80.3285 20.4186 80.3881 21.4423C80.4477 22.3765 80.3981 23.3108 80.3981 24.2451C80.3881 24.2351 80.3285 24.2252 80.3185 24.1954ZM75.9056 18.3115C75.031 18.1723 74.2557 17.8543 73.5799 17.2977C73.2718 17.0393 73.0432 16.6815 72.745 16.3336C73.5699 16.2342 74.2955 16.0951 75.031 16.0653C76.1442 16.0255 77.2673 16.0156 78.3904 16.0752C78.7879 16.0951 79.1954 16.3038 79.5532 16.5125C80.0303 16.7908 79.9707 17.3474 80.08 17.8046C80.2092 18.3413 80.2589 18.8979 80.3484 19.4743C78.947 18.709 77.4163 18.5401 75.9056 18.3115ZM72.8842 19.4445C72.8444 20.021 72.5562 20.3192 71.9698 20.349C70.5882 20.4186 69.495 19.862 68.6203 18.8283C67.7854 17.8543 67.4376 16.6517 67.0301 15.4789C66.8512 14.9521 66.6425 14.4253 66.4337 13.8389C67.8948 14.4353 69.3856 14.9123 70.7473 15.6379C72.1884 16.4231 72.9835 17.7151 72.8842 19.4445ZM74.9912 6.24551C75.1204 6.92136 75.0707 7.63697 75.0111 8.32277C74.9018 9.6546 73.9576 10.3404 72.8941 10.897C71.7014 11.5231 70.4193 11.7517 69.0875 11.5828C68.3818 11.4933 67.696 11.215 66.9804 11.0162C67.1891 10.3304 67.3581 9.77386 67.5071 9.26697C68.3122 9.35643 69.0874 9.48563 69.8726 9.53532C70.8367 9.59496 71.6815 9.23715 72.3872 8.59112C72.9637 8.06435 72.9637 7.3388 72.904 6.64307C72.8146 5.5796 72.3375 4.67515 71.5623 3.93966C71.3436 3.73094 71.1349 3.53215 70.9162 3.32344C71.3535 2.84636 71.771 2.40905 72.1884 1.95186C73.7787 2.96564 74.6434 4.45649 74.9912 6.24551ZM72.3176 5.9374C72.8444 7.7463 72.258 8.7899 70.2304 9.10795C69.3061 9.2471 68.5806 9.07813 67.5966 8.70044C67.5966 8.45197 67.6065 8.18362 67.5966 7.92521C67.5767 7.66679 67.527 7.40837 67.4972 7.20959C68.1333 7.25928 68.7595 7.36861 69.3856 7.35867C70.2503 7.34874 70.6777 6.7027 70.3099 5.91752C70.0317 5.33111 69.6043 4.80435 69.2365 4.25771C69.6341 4.06886 70.0913 3.84027 70.5684 3.61167C71.3038 4.24777 72.0294 4.9435 72.3176 5.9374ZM68.829 6.92137C68.3917 6.86173 67.9345 6.77228 67.527 6.59338C67.2885 6.48405 67.1096 6.20575 66.9506 5.96721C66.5431 5.37087 66.1654 4.75466 65.8573 4.28753C66.4437 4.31734 67.2289 4.36704 68.014 4.38692C68.7694 4.4068 69.8726 5.5299 69.8528 6.28527C69.8428 6.69277 69.3757 7.00088 68.829 6.92137ZM67.1295 7.81588C67.2189 8.33271 67.1195 8.90917 67.0003 9.426C66.7518 10.4795 66.3642 11.4933 65.7281 12.3779C65.0522 13.3221 64.0384 13.7892 62.9849 14.1371C62.3587 14.3458 61.6928 14.5048 61.0368 14.6042C60.2914 14.7235 59.5957 14.4551 58.9198 14.147C57.6278 13.5408 56.7034 12.5568 55.9878 11.3442C55.8189 11.056 55.8288 10.9069 56.0574 10.6684C56.8128 9.87325 57.4886 8.98868 57.6576 7.87551C57.757 7.2096 57.6775 6.51387 57.6775 5.72869C58.5223 6.53375 59.3174 7.27917 60.1026 8.0246C60.2914 8.2035 60.2616 8.37246 60.1622 8.60105C59.387 10.3304 60.5001 12.5369 62.8159 12.5965C63.9689 12.6264 65.4299 11.0162 65.0721 9.64466C64.6447 7.96496 62.9948 7.1599 61.6729 7.44813C61.4742 7.48789 61.2654 7.53758 61.0965 7.64691C60.8778 7.78606 60.7188 7.73637 60.5697 7.57734C59.8243 6.79216 59.0789 6.00698 58.3036 5.19198C58.9198 5.19198 59.4764 5.2516 60.0231 5.17209C60.5399 5.10252 61.0766 4.97331 61.5239 4.72483C62.1699 4.35709 62.7364 3.86014 63.3427 3.43276C63.4421 3.36319 63.6409 3.33337 63.7403 3.38307C65.5094 4.35709 66.7717 5.76844 67.1295 7.81588ZM62.1301 7.79599C63.2036 7.77612 64.5056 9.09801 64.4956 10.1913C64.4857 10.9069 63.4123 11.9604 62.6967 11.9505C61.6034 11.9406 60.3312 10.6584 60.3511 9.58502C60.3709 8.70045 61.2555 7.80593 62.1301 7.79599ZM62.5675 3.55204C61.2853 4.60557 59.8442 5.12241 58.2241 4.5857C57.5284 4.3571 56.9122 3.85021 56.2462 3.45265C56.5245 2.96564 56.7333 2.61777 56.8724 2.36929C57.6377 2.69728 58.3931 3.11472 59.1981 3.34332C60.5697 3.74088 62.2395 2.78673 62.4283 1.58411C62.6271 0.301973 62.2196 -0.761504 61.176 -1.53675C60.7089 -1.88461 60.1722 -2.15296 59.6553 -2.46107C59.8342 -2.77912 60.0429 -3.12699 60.2517 -3.4848C62.4482 -3.08724 63.6707 -1.14912 63.6409 0.520637C63.6309 1.03747 63.5912 1.56423 63.5017 2.08106C63.4023 2.69728 63.0445 3.15448 62.5675 3.55204ZM59.2975 -2.07345C60.4306 -1.58644 61.5537 -1.05967 61.9413 0.242339C62.3886 1.75307 61.5239 2.82648 60.0628 2.97557C58.9 3.09484 57.9955 2.50844 57.1408 1.83258C57.0911 1.79283 57.0513 1.70338 57.0414 1.6338C57.0115 1.19649 57.0016 0.769112 56.9718 0.272161C57.4886 0.669722 57.9259 1.03747 58.403 1.35552C58.6515 1.52448 58.9596 1.66362 59.2578 1.71332C59.9535 1.83259 60.4107 1.58411 60.6293 1.01759C60.7983 0.59021 60.5995 -0.0458898 60.0926 -0.363938C59.5858 -0.681987 59.0192 -0.91058 58.4726 -1.17893C58.2937 -1.25845 58.1048 -1.31809 57.9061 -1.3976C58.3434 -1.63614 58.7509 -1.85479 59.1683 -2.07345C59.1981 -2.07345 59.2578 -2.08339 59.2975 -2.07345ZM56.9817 -0.42357C56.8128 -0.612411 56.6637 -0.831075 56.4649 -1.09943C57.747 -1.06961 58.8403 -0.691928 59.8243 -0.00613609C60.1125 0.192644 60.3014 0.490817 60.192 0.878439C60.0728 1.28594 59.6454 1.44496 59.0987 1.2263C58.234 0.878439 57.588 0.242344 56.9817 -0.42357ZM56.445 0.162835C56.6637 1.10704 56.7134 2.02142 56.0673 2.87618C54.6759 4.7149 52.1514 4.18813 51.0382 2.71716C50.9786 2.63765 51.0183 2.43886 51.0879 2.33947C51.227 2.13075 51.4059 1.96179 51.5948 1.74313C51.9625 2.02142 52.3104 2.30966 52.6881 2.55814C53.4733 3.0849 54.2187 3.00539 54.8647 2.45875C55.7195 1.72326 55.5803 0.779054 55.1629 0.162835C54.9045 -0.224787 54.6063 -0.582597 54.328 -0.960279C54.5765 -1.169 54.825 -1.3976 55.1231 -1.64607C55.7294 -1.17894 56.2661 -0.632287 56.445 0.162835ZM52.7974 -1.12924C52.5688 -1.20875 52.3104 -1.24851 52.0917 -1.3479C51.2569 -1.72559 51.3264 -1.73553 51.3562 -2.63004C51.3761 -3.18663 51.1674 -3.76309 51.0581 -4.33955C51.8035 -4.24016 52.4595 -4.6079 53.0658 -5.14461C53.1353 -5.20424 53.2944 -5.244 53.3739 -5.20424C54.3678 -4.76692 55.2822 -3.89229 55.0039 -2.55053C54.8548 -1.78522 53.5826 -0.850945 52.7974 -1.12924ZM47.4502 -4.04138C47.49 -3.87241 47.4999 -3.70345 47.49 -3.53449C47.4601 -3.2065 47.2316 -3.06736 46.9433 -3.23632C46.6849 -3.39534 46.3867 -3.57425 46.2277 -3.82272C45.7606 -4.54827 45.4525 -5.34339 45.5419 -6.33729C46.4563 -5.71113 47.2117 -5.09491 47.4502 -4.04138ZM48.7125 -5.0651C47.818 -5.17443 47.2117 -5.75088 46.6551 -6.39692C46.5159 -6.55595 46.4166 -6.75473 46.2277 -7.02308C47.4403 -7.01315 48.4541 -6.76466 49.1796 -5.85028C49.2989 -5.70119 49.4082 -5.35333 49.3386 -5.29369C49.1995 -5.14461 48.9212 -5.03529 48.7125 -5.0651ZM42.8186 -6.96345C42.2123 -6.059 41.5564 -5.31357 40.483 -5.08498C40.3339 -5.05516 40.1649 -5.02535 40.0158 -5.0651C39.7475 -5.13467 39.5487 -5.30364 39.7375 -5.61175C39.8866 -5.86022 40.0556 -6.11864 40.2742 -6.30748C40.7911 -6.75474 42.0533 -7.08272 42.8186 -6.96345ZM42.9081 -5.8801C43.0671 -6.01924 43.2659 -6.12857 43.5541 -6.32735C43.5442 -5.08498 43.2858 -4.06126 42.3416 -3.33571C42.2024 -3.22638 41.8844 -3.13692 41.8148 -3.21643C41.6756 -3.35558 41.5663 -3.62393 41.5961 -3.81278C41.6856 -4.70729 42.2521 -5.33345 42.9081 -5.8801ZM38.1871 -4.32961C37.6702 -3.60406 37.5907 -2.87851 37.7994 -2.10327C37.8292 -2.00388 37.7597 -1.82497 37.6802 -1.76534C36.5968 -1.00004 35.593 -0.771439 34.5991 -1.69577C33.8437 -2.3915 33.7841 -3.56431 34.5196 -4.36937C34.8177 -4.69736 35.2053 -4.95577 35.593 -5.18437C35.7023 -5.25394 35.9806 -5.1943 36.0999 -5.09491C36.895 -4.44888 37.1534 -4.34949 38.1871 -4.32961ZM34.778 -0.970215C34.5096 -0.61241 34.2114 -0.264542 33.9729 0.113141C33.1778 1.36546 33.6847 2.20033 34.7084 2.80661C35.1755 3.08491 35.752 2.97557 36.2291 2.66746C36.6564 2.38917 37.0639 2.07113 37.5013 1.76302C37.7199 2.03137 37.9286 2.27984 38.1473 2.52832C37.6305 3.55203 36.1992 4.19808 34.8674 4.04899C33.8636 3.93966 32.6709 2.82649 32.5318 1.83258C32.3529 0.431182 32.7206 -0.761493 33.9928 -1.62619C34.2512 -1.41747 34.5096 -1.19881 34.778 -0.970215ZM30.2855 1.08716C29.6892 1.42508 29.1028 1.35552 28.8941 0.967894C28.7052 0.61009 28.9239 0.133009 29.5103 -0.194978C30.4545 -0.721747 31.4484 -1.10937 32.5914 -1.08949C31.9851 -0.165161 31.2198 0.560389 30.2855 1.08716ZM31.1105 -1.42741C30.4247 -1.08948 29.6892 -0.781373 29.0133 -0.373873C28.4965 -0.0657638 28.2977 0.570329 28.4468 0.987767C28.6953 1.65368 29.3612 1.97173 30.0569 1.64374C30.6036 1.39526 31.0807 1.00765 31.5875 0.669724C31.7664 0.550455 31.9155 0.411304 32.1243 0.242341C32.0944 0.75917 32.0746 1.20643 32.0547 1.65369C32.0547 1.71332 32.0249 1.78289 31.9752 1.81271C31.0111 2.56808 30.0072 3.18429 28.6854 2.91594C26.7572 2.52832 26.6976 0.421243 27.6119 -0.652171C28.1785 -1.31809 28.904 -1.71565 29.6892 -2.0337C29.7687 -2.06352 29.8979 -2.06351 29.9774 -2.02375C30.365 -1.82497 30.7527 -1.61625 31.1105 -1.42741ZM27.3833 -1.01991C26.4292 -0.125398 26.2901 1.51453 27.0554 2.43886C27.7809 3.30356 28.7748 3.62161 29.8383 3.3632C30.6533 3.16442 31.3987 2.72709 32.1938 2.38917C32.3529 2.65752 32.5516 2.98551 32.7504 3.32344C31.3291 5.06277 28.7251 5.19197 27.1945 4.02911C26.5584 3.54209 25.8428 3.15448 25.6341 2.30966C25.1371 0.321858 25.3757 -1.2187 26.956 -2.63004C27.443 -3.06736 28.1486 -3.26614 28.7748 -3.57425C28.9139 -3.30589 29.0133 -3.11705 29.1227 -2.92821C29.2221 -2.75925 29.3413 -2.59029 29.391 -2.53065C28.7152 -2.02376 27.9896 -1.58643 27.3833 -1.01991ZM25.8428 3.50234C26.4789 4.15832 27.2243 4.72484 28.099 4.95344C28.9239 5.1721 29.8085 5.16216 30.703 5.26155C29.9874 6.01691 29.2419 6.81203 28.4766 7.59722C28.3971 7.67673 28.1586 7.69661 28.0393 7.64691C26.3397 6.90148 24.1134 7.7463 23.9444 10.241C23.8848 11.0659 24.4215 11.7517 25.1371 12.189C26.1211 12.7854 27.3933 12.6363 28.2083 11.9108C29.0432 11.1653 29.4805 9.74405 28.914 8.57124C28.8046 8.34265 28.8245 8.19356 28.9736 8.04447C29.7588 7.29905 30.5439 6.55363 31.3689 5.77838C31.3689 6.40454 31.3291 6.97106 31.3788 7.52765C31.4186 7.96496 31.4981 8.45198 31.7168 8.81972C32.1044 9.48563 32.5814 10.1118 33.0585 10.7181C33.2374 10.9467 33.2772 11.0858 33.1082 11.3144C32.7305 11.8114 32.4224 12.358 32.005 12.8152C31.1005 13.7992 29.9675 14.4154 28.6456 14.6142C28.1586 14.6937 27.6119 14.6042 27.115 14.475C26.0714 14.2067 25.0576 13.829 24.173 13.2028C23.2288 12.527 22.7617 11.5132 22.4039 10.4696C22.1852 9.84344 22.0461 9.18746 21.9268 8.53149C21.7976 7.76618 22.0759 7.06052 22.4039 6.37472C23.0102 5.08265 23.9941 4.16826 25.2067 3.45265C25.4751 3.27375 25.6241 3.27375 25.8428 3.50234ZM27.9896 8.20349C28.7649 8.80977 28.904 9.69435 28.417 10.6187C28.0393 11.3343 27.3933 11.712 26.6578 11.9108C26.3795 11.9803 25.9819 11.9008 25.7434 11.7418C25.2067 11.3641 24.6601 10.9467 24.5706 10.1714C24.7396 9.26697 25.1669 8.51161 26.0217 8.07429C26.6876 7.72643 27.3635 7.70654 27.9896 8.20349ZM22.1554 5.96721C21.9467 6.32502 21.7181 6.65301 21.2708 6.7027C20.7838 6.76234 20.2968 6.87167 19.8198 6.85179C19.3129 6.82197 19.134 6.45423 19.293 5.9871C19.6011 5.05283 20.4757 4.41673 21.4498 4.39686C22.0958 4.38692 22.7418 4.31735 23.2288 4.28753C22.9108 4.77454 22.5132 5.36093 22.1554 5.96721ZM19.9092 4.28753C19.6011 4.67515 19.2632 5.05282 18.9849 5.47026C18.6768 5.92746 18.478 6.45423 18.8259 6.96112C19.1538 7.43819 19.7303 7.41831 20.2372 7.39844C20.6745 7.37856 21.1118 7.23941 21.569 7.14996C21.5293 7.66679 21.4994 8.19356 21.4597 8.73027C20.3863 9.11789 19.2632 9.34649 18.1401 8.95887C16.5796 8.41222 16.3013 7.49783 16.8082 5.82808C17.0965 4.88387 17.8121 4.23783 18.5078 3.61167C18.9849 3.84027 19.452 4.06887 19.9092 4.28753ZM16.7486 4.97331C16.3212 5.62929 16.1125 6.38466 16.1324 7.18972C16.1622 8.45197 17.0965 9.18746 18.3587 9.46576C19.4321 9.70429 20.4956 9.56515 21.5491 9.15765C21.738 9.78381 21.9069 10.3503 22.0958 10.9566C21.0522 11.4237 20.0086 11.7418 18.8457 11.6225C17.5636 11.4933 16.3908 11.1653 15.3373 10.3801C14.1744 9.51545 13.8365 8.35258 14.0154 7.01081C14.1247 6.21569 14.3434 5.43051 14.6018 4.67514C15.0093 3.50234 15.8839 2.67741 16.8877 1.95186C17.3052 2.39912 17.7127 2.84636 18.1102 3.27374C17.653 3.83033 17.1462 4.36703 16.7486 4.97331ZM23.8749 27.7436C23.8848 27.7436 23.8947 27.7436 23.8749 27.7436V27.7436ZM23.855 27.7635C23.7954 28.5984 23.7357 29.4134 23.6761 30.2284C23.6662 30.3278 23.6463 30.4768 23.5866 30.5067C23.04 30.7651 22.4933 31.0036 21.8573 31.2819C21.7976 30.6259 21.7479 30.0793 21.7082 29.5227C21.6982 29.4332 21.738 29.2941 21.7976 29.2444C22.4735 28.7375 23.1692 28.2505 23.855 27.7635ZM19.5315 29.8706C20.098 29.7811 20.6546 29.6519 21.2013 29.5426C21.3205 30.2482 21.4299 30.9639 21.569 31.8087C22.3343 31.5105 22.9903 31.2521 23.686 30.9738C23.8948 31.5999 24.1134 32.246 24.342 32.9517C22.9008 33.4884 21.4696 34.0251 19.949 34.5916C19.7701 33.5381 19.6011 32.5839 19.4321 31.6298C19.3626 31.2024 19.293 30.775 19.2334 30.3476C19.2135 30.1091 19.2234 29.9203 19.5315 29.8706ZM20.6844 34.7705C21.9666 34.3431 23.2288 33.8362 24.5408 33.3492C24.9085 34.035 25.2962 34.7506 25.7036 35.506C23.1394 36.2912 20.6248 37.0565 18.0904 37.8317C17.504 35.2774 16.9076 32.7131 16.3013 30.0594C17.1462 30.0594 17.9413 30.0594 18.7563 30.0594C18.9749 31.3515 19.2035 32.7231 19.4619 34.0847C19.6707 35.2376 19.5713 35.1382 20.6844 34.7705ZM16.2119 41.0818C15.2776 37.3646 14.3632 33.707 13.429 30.0097C14.3036 30.0097 15.049 30.0097 15.8243 30.0097C16.2318 31.749 16.6393 33.4486 17.0269 35.1382C17.2356 36.0626 17.4344 36.9869 17.6232 37.9212C17.6928 38.279 17.8518 38.3784 18.2096 38.2591C20.3068 37.5932 22.4039 36.9471 24.501 36.3011C24.8091 36.2017 25.157 36.1818 25.4452 36.0427C25.9024 35.824 26.141 36.0328 26.3397 36.4005C26.5982 36.8676 26.8566 37.3248 27.1945 37.951C23.5171 38.9946 19.9092 40.0282 16.2119 41.0818ZM33.9133 41.4296C32.8697 42.016 31.8261 42.6124 30.8322 43.1789C30.1762 42.0657 29.4904 40.8731 28.7748 39.6903C27.761 38.0007 26.7075 36.3409 25.7335 34.6413C25.2564 33.8064 24.8787 32.9119 24.501 32.0273C23.8848 30.5762 23.9444 29.0854 24.4613 27.6442C24.8091 26.6603 25.3657 25.7459 25.8329 24.7818C26.2602 24.911 26.628 25.0203 26.9858 25.1396C26.7274 25.7061 26.4292 26.2229 26.2503 26.7696C25.5744 28.7673 25.6043 30.7452 26.4193 32.7231C27.3833 35.0786 28.7052 37.2155 30.0271 39.3623C30.3849 39.9388 30.7725 40.5053 31.1005 41.1017C31.2496 41.3601 31.3589 41.3899 31.6074 41.2408C33.4958 40.1873 35.3843 39.1337 37.2826 38.0901C38.7337 37.295 40.0258 36.3011 41.1588 35.0985C41.9142 34.2934 42.3813 33.3393 42.6994 32.2559C42.9677 31.3515 43.1963 30.4669 43.1168 29.4332C43.5342 29.5426 43.8821 29.6221 44.2002 29.7016C44.5083 31.8882 44.1803 33.9157 42.8485 35.6849C42.0434 36.7384 40.9501 37.4838 39.7972 38.1299C37.8491 39.2629 35.8713 40.3363 33.9133 41.4296ZM44.9158 41.3601C45.8997 40.1773 46.9036 39.0045 47.9074 37.8118C48.5733 38.2293 49.2591 38.6567 49.9747 39.094C48.1658 41.0321 46.3768 42.9503 44.548 44.9083C42.7491 42.9801 40.9501 41.052 39.1213 39.094C39.8071 38.6666 40.5028 38.2293 41.1986 37.792C41.9738 38.7362 42.7391 39.6704 43.5044 40.6047C43.743 40.8929 43.9815 41.1812 44.2499 41.4495C44.4983 41.7079 44.707 41.6085 44.9158 41.3601ZM44.548 41.1911C43.5243 39.9487 42.5503 38.766 41.5564 37.5634C42.113 37.0565 42.6 36.6291 43.1069 36.1719C43.4647 36.6192 43.8324 37.0664 44.1902 37.5236C44.4387 37.8417 44.6673 37.8218 44.9058 37.5137C45.2537 37.0664 45.6214 36.6192 45.9792 36.162C46.4861 36.6192 46.9831 37.0664 47.5297 37.5534C46.5458 38.7461 45.5817 39.9189 44.548 41.1911ZM44.5381 37.3646C44.1505 36.8279 43.8125 36.3707 43.4945 35.8936C43.4448 35.824 43.4547 35.6849 43.4845 35.6054C43.8424 34.8202 44.2101 34.035 44.548 33.3095C44.8859 34.0748 45.2537 34.9196 45.6513 35.834C45.3233 36.2812 44.9555 36.7881 44.5381 37.3646ZM48.8119 44.2623C47.5198 45.604 46.2178 46.9259 44.9356 48.2677C44.6971 48.5162 44.4884 48.6156 44.2101 48.3273C43.0274 47.1148 41.8347 45.9221 40.6619 44.7095C39.3102 43.3081 37.9883 41.8868 36.6067 40.4258C37.2528 40.0581 37.8293 39.7201 38.4256 39.422C38.5449 39.3623 38.8033 39.422 38.9027 39.5213C40.6221 41.3501 42.3217 43.1988 44.0213 45.0474C44.5083 45.5742 44.5778 45.5742 45.0649 45.0474C46.2377 43.7653 47.4204 42.5031 48.5932 41.2309C49.1001 40.6842 49.6169 40.1475 50.1039 39.581C50.3027 39.3424 50.4916 39.3027 50.75 39.4518C51.2867 39.7599 51.8333 40.068 52.4794 40.4457C51.227 41.7477 50.0244 43.0099 48.8119 44.2623ZM61.1263 38.3485C60.1722 39.9885 59.1783 41.5986 58.234 43.169C56.0673 41.9365 53.8211 40.6643 51.5749 39.3921C50.3524 38.6964 49.12 38.0305 47.9372 37.2751C45.9792 36.0228 45.045 34.1145 44.7567 31.8584C44.707 31.4509 44.8064 31.0235 44.8263 30.606C44.8363 30.3278 44.6872 29.8904 44.8064 29.8109C45.1145 29.6121 45.522 29.5625 45.9295 29.4531C45.9594 29.9501 45.9494 30.3973 46.019 30.8446C46.3768 33.3393 47.649 35.2873 49.6964 36.7185C50.7698 37.464 51.883 38.1498 53.0061 38.8256C53.9305 39.3822 54.8846 39.8792 55.8288 40.396C56.3854 40.7041 56.942 41.0023 57.5184 41.2706C57.6278 41.3203 57.8862 41.2507 57.9359 41.1513C59.3572 38.7759 60.8083 36.4104 62.1301 33.9853C62.8358 32.6932 63.3029 31.2521 63.3328 29.7513C63.3427 29.1152 63.134 28.4692 63.0644 27.8231C62.9551 26.869 62.5973 26.0242 62.0208 25.1694C62.4382 25.0402 62.7961 24.9309 63.1439 24.8315C64.2869 26.4018 65.0622 28.0915 64.9926 30.0892C64.9628 31.1129 64.6944 32.077 64.2173 32.9517C63.2234 34.7705 62.1798 36.5595 61.1263 38.3485ZM65.2212 27.7635C65.5591 28.0219 65.9169 28.3201 66.2946 28.5984C66.553 28.7971 66.8214 28.986 67.1096 29.1351C67.3282 29.2543 67.4376 29.3736 67.4078 29.632C67.3382 30.1489 67.2885 30.6657 67.2189 31.272C66.6226 31.0135 66.0859 30.775 65.5492 30.5265C65.4796 30.4967 65.4398 30.3576 65.4299 30.2582C65.3504 29.4332 65.2808 28.5984 65.2212 27.7635ZM69.5049 34.6612C69.7832 33.1007 70.0814 31.5503 70.3596 30.0395C71.1349 30.0395 71.9201 30.0395 72.7848 30.0395C72.1785 32.6833 71.5921 35.2476 70.9957 37.8317C68.4911 37.0664 65.9567 36.2912 63.3825 35.506C63.78 34.7606 64.1577 34.0549 64.5453 33.3393C65.4995 33.707 66.4337 34.0748 67.3879 34.4226C67.9445 34.6313 68.511 34.8102 69.0775 34.9792C69.3459 35.0587 69.4552 34.9395 69.5049 34.6612ZM75.6571 29.9998C74.7328 33.6871 73.8184 37.3447 72.8842 41.0619C69.1968 39.9885 65.5193 39.1437 61.9115 37.8615C62.309 37.1757 62.6668 36.5396 63.0445 35.8936C63.6806 36.0626 64.277 36.1918 64.8435 36.3707C66.7816 36.967 68.7098 37.5832 70.6379 38.1895C71.3237 38.4082 71.3138 38.3982 71.4728 37.6727C71.8704 35.9035 72.2878 34.1344 72.6953 32.3553C72.8444 31.6894 73.0134 31.0235 73.1624 30.3576C73.2121 30.1091 73.3115 29.9799 73.5898 29.9799C74.2359 30.0097 74.8819 29.9998 75.6571 29.9998ZM69.6142 29.8904C69.7136 29.9103 69.8528 30.119 69.8428 30.2085C69.6242 31.6298 69.3856 33.051 69.1371 34.5916C67.6165 34.0251 66.1753 33.4884 64.7441 32.9517C64.9628 32.246 65.1715 31.6099 65.3703 30.9639C66.0461 31.2322 66.712 31.4906 67.5071 31.8087C67.6364 30.9738 67.7457 30.2681 67.8649 29.5426C68.4315 29.6519 69.0278 29.7513 69.6142 29.8904ZM82.0579 23.5096C82.038 25.1296 81.9982 26.7596 81.9883 28.3797C81.9883 28.7574 82.0579 29.145 82.0976 29.5028C80.1496 29.5028 78.2015 29.4829 76.2634 29.5128C75.0906 29.5326 73.9079 29.6917 72.7351 29.642C71.0057 29.5724 69.2167 29.6817 67.5966 28.8866C66.2449 28.2207 65.1019 27.2964 64.4161 25.895C64.1875 25.4378 63.9092 25.0004 63.6707 24.5929C63.9291 24.3047 64.1875 24.0264 64.4559 23.7282C64.8236 24.2451 65.1118 24.7917 65.5193 25.2191C66.6325 26.382 67.8451 27.4057 69.4949 27.7834C71.2343 28.1909 72.9835 28.33 74.7626 28.3101C76.4523 28.2903 78.1419 28.2704 79.8315 28.2406C80.0601 28.2406 80.2987 28.2008 80.5273 28.1511C80.6068 28.1312 80.7062 28.0318 80.726 27.9424C80.7757 27.7436 80.7857 27.5448 80.7956 27.3361C80.8254 25.1992 80.8851 23.0524 80.8652 20.9155C80.8453 19.2159 80.6465 17.5362 80.0303 15.946C79.6924 15.0813 79.2153 14.3061 78.4699 13.7097C78.2015 13.4911 78.0226 13.1531 77.7543 12.9245C77.307 12.5667 76.8299 12.2586 76.3032 11.8909C76.6113 11.6225 76.8796 11.384 77.2374 11.0759C78.0524 11.6325 79.0066 12.1592 79.8216 12.855C81.064 13.9284 81.7994 15.3198 81.9982 16.9797C82.1672 18.3711 82.2368 19.7626 82.0976 21.164C82.0082 21.9492 82.0678 22.7343 82.0579 23.5096ZM87.1168 16.5523C86.272 16.7212 85.5067 16.8803 84.7315 17.0095C84.155 17.1089 83.5587 17.1685 82.9822 17.2778C82.6343 17.3375 82.4355 17.3275 82.3958 16.8803C82.3461 16.3634 82.1771 15.8466 82.0579 15.3298C82.8033 15.2105 83.509 15.0912 84.3041 14.962C84.1451 14.5148 84.0457 14.1768 83.9165 13.8489C83.7873 13.5209 83.6282 13.1929 83.4692 12.8351C84.1351 12.6164 84.7712 12.4176 85.4769 12.1791C86.0235 13.6203 86.5503 15.0415 87.1168 16.5523ZM85.9043 11.9903C86.5602 11.6325 87.2858 11.2448 88.0411 10.8373C88.8263 13.4016 89.5916 15.9162 90.3669 18.4506C87.7927 19.047 85.2384 19.6334 82.6343 20.2396C82.5946 19.3849 82.5449 18.5997 82.5051 17.7947C83.7574 17.5859 85.0098 17.3872 86.2621 17.1685C86.5404 17.1188 86.8087 17.0194 87.087 16.9896C87.5243 16.9498 87.6138 16.7511 87.4746 16.3634C86.9479 14.9322 86.441 13.4911 85.9043 11.9903ZM82.8629 12.8649C82.9424 12.8748 83.0418 12.9444 83.0716 13.014C83.3201 13.5407 83.5487 14.0874 83.8171 14.6837C83.2207 14.7434 82.7337 14.7831 82.2566 14.8328C81.9684 14.8626 81.7994 14.7632 81.6305 14.5048C81.2429 13.9284 80.7956 13.3917 80.3682 12.8351C80.3285 12.7754 80.2987 12.7059 80.2788 12.6761C81.1435 12.7357 81.9982 12.7953 82.8629 12.8649ZM93.5971 20.339C89.8898 21.2733 86.2521 22.1877 82.5449 23.112C82.5449 22.3268 82.5349 21.6609 82.5548 20.995C82.5548 20.8757 82.7138 20.6869 82.8232 20.667C85.3079 20.0806 87.7827 19.5042 90.2774 18.9476C90.9036 18.8084 90.9334 18.7886 90.7346 18.1525C90.0787 16.0255 89.4127 13.9085 88.7568 11.7815C88.6574 11.4536 88.5381 11.1256 88.5083 10.7876C88.4984 10.6187 88.6474 10.3801 88.7965 10.2807C89.2835 9.9627 89.7904 9.70429 90.3868 9.36636C91.6888 12.9643 92.5237 16.6517 93.5971 20.339ZM83.9165 -6.44662C83.3102 -6.55595 82.684 -6.60564 82.028 -6.68516C82.0877 -6.96345 82.1374 -7.2815 82.2368 -7.57967C82.2666 -7.67906 82.4455 -7.77845 82.5548 -7.78839C83.0518 -7.8182 83.5587 -7.86791 84.0357 -7.79833C84.8408 -7.67907 85.6558 -7.52997 86.441 -7.29143C88.2697 -6.72491 89.4426 -5.36327 90.3569 -3.7929C91.6192 -1.6262 92.8119 0.590204 94.0443 2.77679C94.6009 3.76075 95.1674 4.74472 95.7041 5.67899C94.5611 6.35484 93.3585 7.06051 92.1658 7.77612C90.4961 8.77996 88.8462 9.82355 87.1566 10.7976C85.8744 11.543 84.5426 12.199 83.0418 12.3978C82.0777 12.517 81.1236 12.4176 80.239 12.0698C79.2451 11.6822 78.3109 11.1653 77.317 10.6982C77.4462 10.2509 77.5555 9.90307 77.6648 9.53532C77.7741 9.57508 77.8934 9.57508 77.963 9.63471C78.8078 10.3006 79.8514 10.4298 80.8453 10.6485C82.3362 10.9765 83.7674 10.6684 85.1787 10.1217C87.6833 9.15764 89.9196 7.6966 92.1957 6.31508C92.6827 6.01691 93.1597 5.68892 93.6468 5.40069C93.8555 5.27148 93.935 5.19198 93.7859 4.93356C93.1498 3.79058 92.5833 2.61776 91.9273 1.48472C91.162 0.142948 90.3967 -1.19882 89.5221 -2.47101C88.7667 -3.57424 87.9119 -4.63772 86.7292 -5.33345C86.1329 -5.68132 85.457 -5.89003 84.8209 -6.14845C84.5426 -6.24784 84.2345 -6.38698 83.9165 -6.44662ZM81.3323 -4.8862C81.6603 -5.55211 82.356 -5.68131 82.9822 -5.6515C83.7674 -5.62168 84.5426 -5.4229 85.3079 -5.244C85.6955 -5.15455 86.0533 -4.95577 86.3316 -4.84644C85.3477 -4.29979 84.324 -3.77302 83.34 -3.16674C82.7138 -2.78906 82.1573 -2.30205 81.5709 -1.87467C80.9546 -1.42741 80.2589 -1.25846 79.5035 -1.23858C78.9966 -1.2187 78.4997 -1.14912 77.9928 -1.09943C79.5234 -2.02376 80.567 -3.32577 81.3323 -4.8862ZM84.0655 -3.13693C84.9104 -3.68358 85.7651 -4.23023 86.8286 -4.31968C87.246 -4.34949 87.5044 -4.21035 87.7529 -3.93205C88.2598 -3.35559 88.7667 -2.76918 89.3332 -2.12314C87.7231 -2.08339 86.3813 -1.50693 85.0197 -0.960281C84.1351 -0.612415 83.2307 -0.423574 82.2865 -0.612415C81.8889 -0.691927 81.5112 -0.900649 81.1037 -1.04973C82.1274 -1.77528 83.0716 -2.4909 84.0655 -3.13693ZM81.9883 0.50075C82.3362 0.858555 82.6045 1.29587 82.8629 1.73319C83.1114 2.14069 82.9325 2.48856 82.5946 2.74698C81.6504 3.46259 80.5869 3.60172 79.4538 3.38307C78.2512 3.14453 77.317 2.40905 76.4026 1.65369C75.7466 1.11698 75.1304 0.540517 74.534 0.0137485C75.7168 -0.20491 76.9492 -0.522966 78.2015 -0.652173C79.583 -0.801259 80.9447 -0.582603 81.9883 0.50075ZM66.553 -7.50016C66.5928 -7.60949 66.722 -7.78839 66.8114 -7.77845C67.3581 -7.74863 67.8948 -7.67906 68.4315 -7.62936C69.644 -7.51009 70.6181 -6.86406 71.5424 -6.13851C72.1685 -5.64156 72.4965 -4.93589 72.6953 -4.2004C72.8941 -3.45497 73.0134 -2.67973 73.1028 -1.91443C73.2519 -0.632293 72.7549 0.470944 71.9896 1.45491C71.3337 2.29972 70.6578 3.12465 69.654 3.57191C69.2266 3.77069 68.7495 3.8999 68.2824 3.95953C66.7319 4.15832 65.3206 3.70112 64.0086 2.91594C63.9092 2.8563 63.8695 2.60783 63.8794 2.44881C63.939 1.6835 64.0782 0.91819 64.0782 0.152886C64.0782 -0.70187 63.6806 -1.43735 63.1936 -2.12314C63.0644 -2.30205 62.9451 -2.47102 62.7662 -2.72943C63.939 -2.4412 65.0323 -2.19272 66.1057 -1.89455C66.235 -1.8548 66.3642 -1.59637 66.384 -1.42741C66.5828 -0.165153 67.3183 0.699536 68.5209 0.977829C70.1807 1.36545 71.7809 0.490819 71.7412 -1.56656C71.7213 -2.78906 70.946 -3.40528 70.0317 -3.78297C69.1173 -4.16065 68.1234 -4.00162 67.2885 -3.35558C67.1692 -3.25619 67.0003 -3.17668 66.9406 -3.04748C66.6623 -2.43126 66.2548 -2.52071 65.7281 -2.70955C64.8634 -3.00772 63.9689 -3.22637 62.965 -3.51461C63.2135 -3.62394 63.3526 -3.69351 63.5017 -3.74321C65.2311 -4.39918 66.0064 -5.85029 66.553 -7.50016ZM68.2327 -3.29595C69.2067 -3.48479 70.4491 -3.03754 70.8665 -2.34181C71.2939 -1.6262 70.9759 -0.950346 70.6976 -0.294371C70.4093 0.391422 69.7534 0.381488 69.1371 0.381488C68.0041 0.381488 67.1295 -0.214858 66.881 -1.13919C66.6226 -2.09333 67.2686 -3.10711 68.2327 -3.29595ZM56.5146 -6.8243C56.5544 -6.91376 56.614 -7.03303 56.6736 -7.16223C56.9718 -7.83809 56.9619 -7.79833 57.7073 -7.60949C58.8801 -7.3312 60.1622 -5.68132 59.9833 -4.46876C59.8541 -3.59413 59.5758 -2.82881 58.7906 -2.32192C57.6775 -1.60631 56.614 -1.50693 55.3517 -2.0337C55.4014 -2.40145 55.4511 -2.72943 55.5008 -3.05741C56.0375 -3.01766 56.5742 -2.95803 57.1109 -2.94809C57.8762 -2.92821 58.5123 -3.36552 58.7012 -4.00162C58.9795 -4.96571 58.8006 -5.62168 58.0452 -6.07888C57.5781 -6.36711 57.0513 -6.57583 56.5146 -6.8243ZM56.1369 -6.30748C56.1866 -6.34724 56.2959 -6.35717 56.3556 -6.32735C56.9221 -6.07888 57.5284 -5.89004 58.0154 -5.53223C58.4925 -5.18437 58.5521 -4.6079 58.2738 -4.05132C58.0253 -3.55436 57.588 -3.33571 57.0513 -3.35558C56.6637 -3.36552 56.2761 -3.41522 55.8984 -3.46491C55.63 -3.50467 55.4809 -3.63387 55.3319 -3.91217C55.0536 -4.39918 54.6262 -4.79675 54.2485 -5.22412C54.1491 -5.33345 54.01 -5.40302 53.7913 -5.5521C54.7355 -5.5521 55.5008 -5.74096 56.1369 -6.30748ZM50.5214 -7.71882C50.5611 -7.77845 50.6903 -7.79833 50.7698 -7.79833C51.7439 -7.84803 52.7477 -7.06284 52.9067 -6.11864C52.9962 -5.57199 52.5986 -5.30363 52.2309 -5.05515C51.6246 -4.63771 50.5711 -4.68741 49.9847 -5.13467C49.925 -5.17443 49.8555 -5.23406 49.8356 -5.29369C49.4977 -6.20808 49.4976 -6.20808 48.8317 -6.84418C49.4678 -7.0529 50.1337 -7.11254 50.5214 -7.71882ZM36.1893 -6.12857C36.3384 -7.07278 37.3422 -7.85796 38.3262 -7.80827C38.4157 -7.80827 38.5449 -7.77845 38.5747 -7.72875C38.9623 -7.11253 39.6282 -7.06284 40.2643 -6.86406C39.8071 -6.38699 39.2505 -6.03913 39.2505 -5.31358C39.2505 -5.244 39.1412 -5.17443 39.0716 -5.12473C38.2268 -4.54827 36.9248 -4.72717 36.3185 -5.53223C36.1992 -5.66144 36.1595 -5.92979 36.1893 -6.12857ZM33.3269 -6.06894C33.8636 -5.74095 34.5196 -5.63162 35.1358 -5.4229C34.4301 -5.07504 33.9332 -4.45882 33.635 -3.69351C33.6151 -3.64382 33.5555 -3.58418 33.5058 -3.5643C32.8001 -3.3854 32.0845 -3.18662 31.3689 -3.50467C30.862 -3.72333 30.6732 -4.17059 30.6632 -4.67748C30.6433 -5.16449 30.9415 -5.52229 31.3391 -5.78071C31.5577 -5.91985 31.8261 -5.98943 32.0547 -6.11864C32.492 -6.34723 32.8498 -6.36711 33.3269 -6.06894ZM31.1403 -7.52997C32.1739 -7.92753 32.1839 -7.90766 32.5516 -6.81437C32.0447 -6.57583 31.518 -6.36711 31.0508 -6.07888C30.2657 -5.59186 30.0868 -4.92595 30.3949 -3.96186C30.6036 -3.32576 31.2198 -2.91827 32.0149 -2.93815C32.5417 -2.94809 33.0585 -3.00772 33.5853 -3.04748C33.635 -2.71949 33.6847 -2.40144 33.7443 -2.01382C33.0983 -1.76534 32.4125 -1.55663 31.6969 -1.73553C30.6732 -1.99394 29.7886 -2.44119 29.3314 -3.5146C28.5661 -5.31357 29.8283 -7.02308 31.1403 -7.52997ZM15.9932 -2.14303C16.1125 -3.0276 16.3212 -3.91217 16.5995 -4.76693C16.8977 -5.67138 17.6133 -6.2379 18.3985 -6.77461C19.5912 -7.57967 20.923 -7.68899 22.2747 -7.78838C22.3542 -7.79832 22.5033 -7.62937 22.5331 -7.5101C22.9406 -6.31742 23.3879 -5.14461 24.4613 -4.37931C24.9383 -4.04138 25.485 -3.80284 26.0515 -3.48479C25.1968 -3.23632 24.3519 -2.98784 23.5071 -2.73937C23.3879 -2.69961 23.2587 -2.68967 23.1493 -2.63998C22.7816 -2.45114 22.5331 -2.49089 22.2747 -2.86857C21.4299 -4.09107 19.2334 -4.31967 18.0208 -3.09717C16.9076 -1.97406 17.2455 -0.155214 18.2593 0.570334C19.2035 1.24619 20.6149 1.43503 21.7479 0.361617C22.2648 -0.125395 22.6325 -0.681985 22.6921 -1.40753C22.7219 -1.7554 22.9008 -1.88461 23.2388 -1.95418C24.2426 -2.17284 25.2266 -2.44119 26.2602 -2.70955C25.9223 -2.13308 25.5943 -1.63613 25.326 -1.10936C24.8887 -0.254607 24.9483 0.669717 25.0377 1.59405C25.0377 1.62386 25.0576 1.65368 25.0676 1.6835C25.316 2.89606 25.316 2.89606 24.173 3.41289C22.881 3.98935 21.5591 4.15832 20.1577 3.85021C19.0644 3.61167 18.319 2.89606 17.6133 2.11088C17.3052 1.76302 17.0368 1.37539 16.7685 0.997705C16.0926 0.0634368 15.8441 -1.00998 15.9932 -2.14303ZM22.2548 -1.41747C22.1852 -0.662105 21.728 -0.15522 21.0721 0.142951C20.7143 0.301975 20.3068 0.351668 19.9191 0.451058C18.5973 0.381485 17.7823 -0.612412 18.0307 -1.91442C18.15 -2.54058 18.6867 -2.80893 19.1737 -3.06735C19.8893 -3.45497 20.6447 -3.49473 21.3603 -3.08723C21.9964 -2.72943 22.3244 -2.15296 22.2548 -1.41747ZM12.604 -0.354C13.2699 -0.234731 13.9458 -0.105519 14.5918 0.023688C13.6675 0.788993 12.7432 1.61393 11.7592 2.36929C10.4572 3.38307 8.98623 3.7707 7.36617 3.24393C7.0183 3.1346 6.70025 2.906 6.41202 2.6774C6.14367 2.46868 6.03434 2.17052 6.18343 1.80278C6.74995 0.361618 7.89294 -0.314243 9.33409 -0.602475C10.4473 -0.831072 11.5207 -0.542841 12.604 -0.354ZM4.17574 -0.910582C3.03276 -1.31808 1.86989 -1.66595 0.716967 -2.02375C0.458552 -2.10326 0.160382 -2.09333 -0.197422 -2.13309C0.289589 -2.71949 0.756723 -3.28601 1.21392 -3.85253C1.80032 -4.56814 2.5855 -4.429 3.20172 -4.10101C4.43416 -3.44503 5.58708 -2.63998 6.75989 -1.89455C7.14751 -1.64607 7.52519 -1.36778 7.93269 -1.08949C6.71019 -0.334124 5.46782 -0.453387 4.17574 -0.910582ZM6.60086 -5.6018C7.13757 -5.49247 7.57489 -5.27381 7.8333 -4.73711C8.56879 -3.22638 9.60245 -1.984 11.2126 -1.13918C11.0138 -1.10937 10.9243 -1.08949 10.8349 -1.08949C10.328 -1.13918 9.8211 -1.19882 9.30428 -1.23857C8.51909 -1.30815 7.81342 -1.58644 7.20714 -2.08339C5.82562 -3.22638 4.35465 -4.19046 2.60538 -4.7868C3.90739 -5.34339 5.16965 -5.89003 6.60086 -5.6018ZM-3.15925 -0.463326C-2.40388 -1.80509 -1.64852 -3.15681 -0.83352 -4.46876C0.418796 -6.48638 2.33703 -7.50016 4.64288 -7.79833C5.29885 -7.88778 5.97471 -7.81821 6.64062 -7.79833C6.71019 -7.79833 6.80958 -7.70887 6.82946 -7.6393C6.91891 -7.31131 6.98849 -6.98333 7.05806 -6.67522C6.47166 -6.60564 5.91507 -6.58577 5.35849 -6.47644C3.2216 -6.07888 1.50215 -5.02534 0.160381 -3.28601C-1.20126 -1.52681 -2.26474 0.411313 -3.33815 2.34942C-3.80529 3.20418 -4.25254 4.07881 -4.71967 4.93357C-4.84888 5.16216 -4.81907 5.27149 -4.59047 5.41063C-3.59657 6.01691 -2.62254 6.67289 -1.6187 7.25929C-0.276934 8.04447 1.07477 8.83959 2.46623 9.53533C3.808 10.2012 5.2094 10.7379 6.74001 10.7678C7.35623 10.7777 7.97245 10.6584 8.57873 10.559C9.06574 10.4795 9.55275 10.3603 10.0199 10.1913C10.4771 10.0223 10.9045 9.76393 11.4014 9.52539C11.5207 9.92295 11.6201 10.2708 11.7294 10.6286C10.646 11.1753 9.6919 11.9406 8.43958 12.2288C6.73007 12.6164 5.11995 12.4475 3.58934 11.6623C2.45629 11.0858 1.363 10.41 0.259772 9.76393C-1.34041 8.81972 -2.93065 7.85564 -4.53083 6.92137C-5.24644 6.49399 -5.99187 6.10637 -6.6379 5.73863C-5.48498 3.69119 -4.33205 1.60399 -3.15925 -0.463326Z" fill="white" fill-opacity="0.06"/>
</g>
<path d="M21.5831 46.3259L20.4448 42.2001C23.0458 41.7165 27.3542 38.8884 27.9234 36.2195C28.5476 33.3057 26.5709 31.1755 26.1241 28.5433L30.0531 27.0251C36.0017 35.0442 31.0323 45.0282 21.577 46.3259H21.5831Z" fill="white"/>
<path d="M49.3547 39.2329C50.4624 40.4755 53.0878 40.4694 54.1282 39.0982C55.8173 36.87 56.1478 34.1399 58.7488 32.3402C64.2934 28.496 70.7438 35.3642 68.406 41.2407C66.5578 45.8746 61.0192 45.2013 57.3412 43.1812C54.2261 45.2563 50.2115 45.6726 47.1699 43.2302C44.2201 45.2625 40.8113 45.3604 37.3963 44.5585C36.7354 44.4055 34.3547 43.8423 34.5016 42.9975L35.9888 39.3431C37.9349 40.1817 44.5689 41.2223 43.7855 37.8127C43.3388 35.86 40.1442 31.6301 40.1381 30.7976C40.1381 30.2099 42.8859 28.3368 43.3755 28.3246C44.6056 28.3001 47.0169 33.1972 47.5432 34.4153C48.0695 35.6335 48.5774 38.3698 49.3547 39.239V39.2329ZM61.2396 35.9641C57.843 39.3308 60.1074 40.5918 64.0547 39.9246C65.2114 39.1656 63.8038 36.3987 62.641 35.9824L61.2396 35.9641Z" fill="white"/>
<path d="M66.635 46.7446C68.0793 51.7703 70.5762 59.52 63.9912 61.7298C61.7513 62.4827 57.2042 62.7521 56.3963 60.0158H55.8333C55.4845 60.1689 55.411 60.7994 55.1479 61.032C53.0671 62.8929 47.039 62.7766 45.5947 60.0158C43.3058 62.5991 38.367 62.85 35.3316 61.5523C34.1443 61.0442 32.8102 59.3792 32.192 58.2406C31.1088 56.245 30.9191 52.4375 27.443 54.3719C24.6523 55.9267 25.8396 58.2896 26.4454 60.7688C25.1235 60.6831 22.749 62.495 21.9595 60.8973C18.6242 54.1393 24.7074 48.3301 31.4821 49.4809C36.2618 50.2889 34.7012 56.545 38.0855 57.2857C43.1406 58.3937 43.3609 55.3391 43.8872 51.2928L48.4404 52.058C48.061 53.0925 47.498 56.0736 48.1344 56.9123L51.9778 57.304C53.9606 56.7225 53.673 51.1582 54.7256 50.95L58.6791 51.6846C58.5689 53.6128 57.1797 56.1593 59.3094 57.3102C60.7109 57.4448 62.3082 57.6346 63.4281 56.6307C64.6705 54.7208 61.5187 48.3668 62.094 47.9077L66.6288 46.763L66.635 46.7446Z" fill="white"/>
</g>
</g>
</g>
<rect x="1.7179" y="1.71815" width="85.9066" height="85.9066" rx="42.9533" stroke="white" stroke-width="3.43626"/>
<defs>
<linearGradient id="paint0_linear_48717_67234" x1="15.0182" y1="-22.6584" x2="79.5571" y2="82.2087" gradientUnits="userSpaceOnUse">
<stop stop-color="#5724A9"/>
<stop offset="1" stop-color="#421984"/>
</linearGradient>
<clipPath id="clip0_48717_67234">
<rect x="3.43604" y="3.43628" width="82.4704" height="82.4704" rx="41.2352" fill="white"/>
</clipPath>
<clipPath id="clip1_48717_67234">
<rect x="3.43604" y="3.43628" width="82.4704" height="82.4704" rx="41.2352" fill="white"/>
</clipPath>
<clipPath id="clip2_48717_67234">
<rect x="3.30566" y="3.43628" width="82.4704" height="82.4704" rx="22.799" fill="white"/>
</clipPath>
<clipPath id="clip3_48717_67234">
<rect width="55.1198" height="89.494" fill="white" transform="translate(-0.206543 46.9741) rotate(-90)"/>
</clipPath>
</defs>
</svg>
