<svg width="263" height="263" viewBox="0 0 263 263" fill="none" xmlns="http://www.w3.org/2000/svg">
<g clip-path="url(#clip0_48743_25132)">
<rect x="5.39404" y="5.39404" width="251.726" height="251.726" rx="125.863" fill="#F9F6FF"/>
<path d="M249.503 130.808C249.503 146.395 246.433 161.83 240.468 176.23C234.503 190.631 225.76 203.716 214.738 214.738C203.716 225.76 190.631 234.503 176.23 240.468C161.83 246.433 146.395 249.503 130.808 249.503C115.22 249.503 99.7858 246.433 85.3851 240.468C70.9843 234.503 57.8995 225.76 46.8776 214.738C35.8558 203.716 27.1127 190.631 21.1478 176.23C15.1828 161.83 12.1126 146.395 12.1126 130.808C12.1126 115.22 15.1828 99.7858 21.1478 85.3851C27.1128 70.9843 35.8558 57.8995 46.8776 46.8776C57.8995 35.8558 70.9843 27.1127 85.3851 21.1478C99.7858 15.1828 115.22 12.1126 130.808 12.1126C146.395 12.1126 161.83 15.1828 176.23 21.1478C190.631 27.1128 203.716 35.8558 214.738 46.8776C225.76 57.8995 234.503 70.9843 240.468 85.3851C246.433 99.7859 249.503 115.22 249.503 130.808L249.503 130.808Z" stroke="#E2D5F6" stroke-width="13.4372" stroke-dasharray="2.69 89.58"/>
<path d="M251.742 130.808C251.742 146.689 248.614 162.415 242.537 177.087C236.459 191.76 227.551 205.092 216.321 216.321C205.092 227.551 191.76 236.459 177.087 242.537C162.415 248.614 146.689 251.742 130.808 251.742C114.926 251.742 99.2005 248.614 84.528 242.537C69.8556 236.459 56.5238 227.551 45.294 216.321C34.0642 205.092 25.1562 191.76 19.0787 177.087C13.0012 162.415 9.8731 146.689 9.8731 130.808C9.8731 114.926 13.0012 99.2005 19.0787 84.528C25.1562 69.8556 34.0642 56.5238 45.294 45.294C56.5239 34.0642 69.8556 25.1562 84.5281 19.0787C99.2005 13.0012 114.926 9.8731 130.808 9.8731C146.689 9.8731 162.415 13.0012 177.087 19.0787C191.76 25.1562 205.092 34.0642 216.321 45.294C227.551 56.5239 236.459 69.8556 242.537 84.5281C248.614 99.2005 251.742 114.926 251.742 130.808L251.742 130.808Z" stroke="#E2D5F6" stroke-width="8.95812" stroke-dasharray="1.79 26.87"/>
</g>
<rect x="2.69697" y="2.69697" width="257.121" height="257.121" rx="128.56" stroke="#E2D5F6" stroke-width="5.39414"/>
<defs>
<clipPath id="clip0_48743_25132">
<rect x="5.39404" y="5.39404" width="251.726" height="251.726" rx="125.863" fill="white"/>
</clipPath>
</defs>
</svg>
